<svg width="25" height="25" viewBox="0 0 25 25" fill="none" xmlns="http://www.w3.org/2000/svg"
    >
    <path fill-rule="evenodd" clip-rule="evenodd"
          d="M20.66 12.6932C20.66 12.0905 20.6059 11.511 20.5055 10.9546H12.5V14.2425H17.0746C16.8775 15.3051 16.2786 16.2053 15.3784 16.808V18.9407H18.1255C19.7327 17.461 20.66 15.2819 20.66 12.6932Z"
          fill="#4285F4"></path>
    <path fill-rule="evenodd" clip-rule="evenodd"
          d="M12.5 21C14.795 21 16.7191 20.2389 18.1254 18.9407L15.3784 16.808C14.6173 17.318 13.6436 17.6193 12.5 17.6193C10.2861 17.6193 8.41224 16.1241 7.74383 14.115H4.90405V16.3173C6.30269 19.0953 9.17724 21 12.5 21Z"
          fill="#34A853"></path>
    <path fill-rule="evenodd" clip-rule="evenodd"
          d="M7.74387 14.1151C7.57387 13.605 7.47728 13.0603 7.47728 12.5C7.47728 11.9398 7.57387 11.395 7.74387 10.885V8.68277H4.90409C4.32841 9.83027 4 11.1285 4 12.5C4 13.8716 4.32841 15.1698 4.90409 16.3173L7.74387 14.1151Z"
          fill="#FBBC05"></path>
    <path fill-rule="evenodd" clip-rule="evenodd"
          d="M12.5 7.38072C13.7479 7.38072 14.8684 7.80958 15.7493 8.65186L18.1873 6.2139C16.7152 4.8423 14.7911 4.00003 12.5 4.00003C9.17724 4.00003 6.30269 5.90481 4.90405 8.68277L7.74383 10.885C8.41224 8.87595 10.2861 7.38072 12.5 7.38072Z"
          fill="#EA4335"></path>
</svg>