<svg width="146" height="60" viewBox="0 0 146 60" fill="none" xmlns="http://www.w3.org/2000/svg"><path d="M46.728 12.8964H13.5712C13.3533 12.8964 13.1776 13.0712 13.1776 13.295V46.1175H46.981V13.1552C46.981 13.0083 46.8685 12.8964 46.7209 12.8964H46.728ZM43.2492 2.69926C45.477 3.02098 47.241 4.74148 47.5924 6.95156L48.007 9.53931C48.2389 10.994 49.3844 12.1341 50.8462 12.3649L54.9223 13.0083C56.2786 13.2251 57.375 14.2252 57.7053 15.5471C57.9934 16.7081 58.2886 17.911 58.2253 19.03C57.628 18.3446 56.9955 17.7991 56.2927 17.5683C55.2737 17.2326 47.1075 19.0091 45.0062 20.5687C44.1277 21.2191 43.4109 21.9815 42.8346 22.7788C41.6329 24.4433 39.2364 24.6741 37.7606 23.2474C37.7255 23.2124 37.6903 23.1774 37.6552 23.1425C37.6552 23.1425 37.4443 22.9257 37.114 22.534C35.828 20.9814 36.1934 18.8412 37.859 17.7012C38.5688 17.2116 39.2364 16.6521 39.8408 16.0157C41.5907 14.1833 43.4179 5.11915 43.193 4.2659C43.0314 3.64344 42.7081 3.1119 42.2935 2.64331C42.2724 2.62233 42.2935 2.58736 42.3146 2.59435C42.6167 2.61533 42.926 2.6573 43.2422 2.69926H43.2492ZM20.0507 1.57324C21.8569 0.230409 24.3236 0.202434 26.1438 1.52428L28.2732 3.06294C29.4749 3.93019 31.0913 3.93019 32.293 3.06294L35.6312 0.650044C36.7416 -0.154256 38.2314 -0.217201 39.4051 0.489184C40.4311 1.10465 41.4853 1.74809 42.2443 2.58736C41.3377 2.52441 40.5014 2.58736 39.8408 2.91607C38.885 3.39166 34.3662 10.3996 33.9937 12.9733C33.8391 14.0224 33.8672 15.0225 34.0148 15.9667C34.3311 18.0159 32.799 19.9463 30.7188 19.9602C30.6907 19.9602 30.6556 19.9602 30.6275 19.9602C30.6275 19.9602 30.3955 19.9602 30.002 19.9253C27.985 19.7574 26.5654 17.89 26.9238 15.9038C27.0714 15.0785 27.1417 14.2322 27.1206 13.379C27.0574 10.8542 21.9061 3.15387 21.14 2.71325C20.5778 2.39153 19.9805 2.23766 19.355 2.1957C19.3269 2.1957 19.3128 2.16073 19.3339 2.13975C19.5658 1.94392 19.8048 1.75508 20.0578 1.56625L20.0507 1.57324ZM2.85391 17.0997C3.17718 14.8827 4.906 13.1272 7.12676 12.7705L9.72702 12.3579C11.1888 12.1271 12.3343 10.987 12.5662 9.53231L13.2128 5.47584C13.4306 4.12602 14.4356 3.03497 15.7638 2.70625C16.9304 2.4195 18.1392 2.12576 19.2636 2.1887C18.5749 2.78319 18.0268 3.41264 17.7948 4.11203C17.4575 5.12615 19.2426 13.2531 20.8097 15.3443C21.4422 16.1905 22.1801 16.8829 22.9532 17.4424C24.6258 18.6594 24.9701 21.0443 23.5295 22.52C23.4873 22.562 23.4451 22.6109 23.3959 22.6529C23.3959 22.6529 23.1781 22.8627 22.7845 23.1914C21.2244 24.4713 19.0739 24.1076 17.9284 22.4501C17.4364 21.7437 16.8742 21.0793 16.2347 20.4778C14.3934 18.7363 5.2855 16.9179 4.42812 17.1417C3.80265 17.3026 3.26854 17.6243 2.79769 18.0369C2.7766 18.0579 2.74147 18.0369 2.74849 18.0159C2.76958 17.7152 2.81174 17.4075 2.85391 17.0997ZM1.67325 34.1159L3.21935 31.9968C4.09079 30.8008 4.09079 29.1922 3.21935 27.9962L0.794788 24.6741C-0.0134001 23.5691 -0.0766496 22.0864 0.63315 20.9184C1.25159 19.8973 1.89814 18.8482 2.74147 18.0929C2.67822 18.9951 2.74147 19.8274 3.07177 20.4848C3.54965 21.436 10.5914 25.933 13.1776 26.3037C14.2458 26.4576 15.2719 26.4296 16.2277 26.2757C18.3079 25.947 20.1913 27.5067 20.1983 29.6048V29.6608C20.1983 29.6608 20.1983 29.8916 20.1632 30.2833C19.9945 32.2905 18.1181 33.7033 16.1222 33.3466C15.293 33.1997 14.4426 33.1298 13.5852 33.1508C11.0482 33.2137 3.31071 38.3402 2.86796 39.1026C2.54469 39.6621 2.39008 40.2566 2.34791 40.879C2.34791 40.907 2.31277 40.921 2.29169 40.9C2.09492 40.6692 1.90517 40.4314 1.71542 40.1796C0.366097 38.3822 0.345014 35.9273 1.66622 34.1159H1.67325ZM17.324 57.3007C15.0962 56.979 13.3322 55.2585 12.9809 53.0484L12.5662 50.4607C12.3343 49.006 11.1888 47.866 9.72702 47.6352L5.65094 46.9917C4.29459 46.7749 3.19827 45.7748 2.86796 44.4529C2.57983 43.2919 2.28466 42.089 2.34791 40.97C2.94527 41.6554 3.57776 42.2009 4.28054 42.4317C5.29956 42.7674 13.4658 40.9909 15.5671 39.4313C16.4666 38.7669 17.1834 37.9906 17.7667 37.1793C18.9896 35.4657 21.2946 35.2839 22.8056 36.7526C22.8407 36.7876 22.8759 36.8226 22.911 36.8575C22.911 36.8575 23.1219 37.0743 23.4522 37.466C24.7382 39.0187 24.3728 41.1588 22.7072 42.2988C21.9974 42.7884 21.3298 43.3479 20.7254 43.9843C18.9755 45.8167 17.1483 54.8809 17.3732 55.7341C17.5348 56.3566 17.8581 56.8881 18.2727 57.3567C18.2938 57.3777 18.2727 57.4126 18.2516 57.4057C17.9495 57.3847 17.6402 57.3427 17.331 57.3007H17.324ZM40.5155 58.4268C38.7093 59.7696 36.2426 59.7906 34.4224 58.4757L32.5952 57.1539C31.0913 56.0698 29.4749 56.0698 28.2732 56.9371L24.935 59.35C23.8246 60.1543 22.3347 60.2172 21.1611 59.5108C20.1351 58.8954 19.0809 58.2519 18.3219 57.4126C19.2285 57.4756 20.0648 57.4127 20.7254 57.0839C21.6812 56.6083 26.2 49.6004 26.5725 47.0267C26.7271 45.9776 26.699 44.9775 26.5514 44.0333C26.2351 41.9841 27.7672 40.0538 29.8474 40.0398C29.8755 40.0398 29.9106 40.0398 29.9387 40.0398C29.9387 40.0398 30.1707 40.0398 30.5642 40.0747C32.5812 40.2426 34.0008 42.11 33.6423 44.0962C33.4948 44.9215 33.4245 45.7678 33.4456 46.621C33.5088 49.1458 38.6601 56.8461 39.4262 57.2868C39.9884 57.6085 40.5857 57.7623 41.2112 57.8043C41.2393 57.8043 41.2534 57.8393 41.2323 57.8603C41.0004 58.0561 40.7614 58.2449 40.5084 58.4338L40.5155 58.4268ZM57.6982 43.0052C57.3679 45.1803 55.6251 46.8798 53.4394 47.2225L50.8322 47.6352C49.3704 47.866 48.2249 49.006 47.993 50.4607L47.3464 54.5172C47.1285 55.867 46.1236 56.958 44.7953 57.2868C43.6287 57.5735 42.42 57.8673 41.2955 57.8043C41.9843 57.2098 42.5324 56.5804 42.7643 55.881C43.1017 54.8669 41.3166 46.7399 39.7494 44.6488C39.1169 43.8025 38.379 43.1101 37.613 42.5506C35.9404 41.3336 35.5961 38.9487 37.0367 37.473C37.0789 37.431 37.1211 37.3821 37.1703 37.3401C37.1703 37.3401 37.3881 37.1303 37.7817 36.8016C39.3418 35.5217 41.4923 35.8854 42.6378 37.5429C43.1298 38.2493 43.692 38.9137 44.3315 39.5152C46.1728 41.2567 55.2807 43.0751 56.1381 42.8513C56.7635 42.6905 57.2977 42.3687 57.7685 41.9561C57.7896 41.9351 57.8247 41.9561 57.8177 41.9771C57.7896 42.3128 57.7474 42.6555 57.6982 43.0052ZM59.933 39.0816C59.3146 40.1027 58.6681 41.1518 57.8247 41.9071C57.888 41.0049 57.8247 40.1726 57.4944 39.5152C57.0165 38.564 49.9748 34.067 47.3886 33.6963C46.3274 33.5424 45.3013 33.5704 44.3456 33.7243C42.2654 34.053 40.3679 32.4863 40.3608 30.3882V30.3462C40.3608 30.3462 40.3608 30.1154 40.396 29.7237C40.5647 27.7165 42.4411 26.3037 44.4369 26.6604C45.2662 26.8073 46.1166 26.8772 46.9739 26.8562C49.5109 26.7933 57.2485 21.6668 57.6912 20.9044C58.0145 20.3449 58.1691 19.7504 58.2113 19.128C58.2113 19.1 58.2464 19.086 58.2675 19.107C58.4643 19.3378 58.654 19.5756 58.8438 19.8274C60.1931 21.6248 60.2142 24.0797 58.8929 25.8911L57.3468 28.0102C56.4754 29.2062 56.4754 30.8148 57.3468 32.0108L59.7714 35.3329C60.5796 36.4379 60.6428 37.9206 59.933 39.0886V39.0816Z" fill="#443E24"></path><path d="M81.1328 23.918H75.2295V46.7951H81.1328V23.918Z" fill="#443E24"></path><path d="M69.5353 19.7303V13.7687H81.0225V19.7303H69.5353Z" fill="#D2FF64" stroke="#96C64A" stroke-width="0.221013"></path><path d="M94.0792 20.6877C94.8874 19.6876 95.9415 18.9183 97.2065 18.4007C98.4785 17.8762 100.032 17.6174 101.831 17.6174C104.81 17.6174 107.109 18.2958 108.648 19.6386C110.18 20.9745 111.002 22.8698 111.086 25.2687V25.5695H116.364V25.2547C116.294 23.3314 115.928 21.5829 115.254 20.0513C114.579 18.5126 113.602 17.1768 112.365 16.0787C111.121 14.9737 109.603 14.1274 107.846 13.5469C106.097 12.9734 104.08 12.6797 101.866 12.6797C99.2375 12.6797 96.8762 13.0993 94.8592 13.9246C92.8353 14.7569 91.1205 15.9528 89.7642 17.4775C88.4148 19.0022 87.3747 20.8346 86.693 22.9398C86.0114 25.0309 85.667 27.3669 85.667 29.8917C85.667 32.4165 86.0114 34.8154 86.693 36.9346C87.3747 39.0677 88.4078 40.9211 89.7642 42.4598C91.1205 44.0054 92.8212 45.2154 94.8171 46.0546C96.8059 46.8939 99.1532 47.3205 101.782 47.3205C104.002 47.3205 106.012 47.0198 107.762 46.4323C109.519 45.8378 111.051 44.9846 112.302 43.8795C113.56 42.7815 114.544 41.4247 115.233 39.865C115.921 38.3054 116.28 36.5499 116.315 34.6616V34.3538L111.1 34.3049V34.6056C111.009 37.0395 110.173 38.9698 108.605 40.3476C107.031 41.7324 104.74 42.4318 101.789 42.4318C100.025 42.4318 98.4856 42.152 97.2135 41.6065C95.9486 41.061 94.8944 40.2567 94.0862 39.2076C93.264 38.1515 92.6526 36.8297 92.252 35.277C91.8514 33.7034 91.6476 31.878 91.6476 29.8497C91.6476 27.8215 91.8514 26.052 92.252 24.5064C92.6526 22.9887 93.264 21.7018 94.0792 20.6877Z" fill="#443E24"></path><path d="M144.889 32.1295C144.601 31.6888 144.207 31.3042 143.715 31.0034C143.223 30.7027 142.598 30.5069 141.853 30.416L141.382 30.367C141.635 30.2761 141.881 30.1712 142.113 30.0593C142.921 29.6466 143.624 29.0941 144.186 28.4087C144.755 27.7233 145.177 26.884 145.451 25.9189C145.718 24.9677 145.859 23.8836 145.859 22.6877C145.859 19.6663 144.966 17.3443 143.209 15.7777C141.459 14.218 138.838 13.4277 135.408 13.4277H121.269V46.8097H126.806V33.6192H137.952C138.437 33.6192 138.831 33.6751 139.119 33.773C139.393 33.8709 139.611 34.0108 139.766 34.1717C139.92 34.3395 140.019 34.5284 140.061 34.7662C140.117 35.0319 140.145 35.3537 140.145 35.7103L140.187 46.502V46.8097H145.676V35.4026C145.676 34.7732 145.613 34.1787 145.493 33.6332C145.367 33.0736 145.163 32.5701 144.882 32.1365L144.889 32.1295ZM140.279 23.513C140.279 25.2474 139.801 26.5623 138.866 27.4156C137.924 28.2758 136.477 28.7094 134.579 28.7094H126.813V18.3165H134.403C136.392 18.3165 137.889 18.7501 138.852 19.6173C139.801 20.4706 140.286 21.7785 140.286 23.513H140.279Z" fill="#443E24"></path></svg>