<svg width="56" height="60" viewBox="0 0 56 60" fill="none" xmlns="http://www.w3.org/2000/svg">
<g id="Icon">
<g id="Group">
<path id="Vector" d="M0.145163 22.6633C0.522896 18.9577 3.63099 16.4629 7.21156 16.2346C10.8346 16.0026 15.6529 16.0791 19.3099 16.2346C22.967 16.39 25.9367 16.7714 27.8484 20.0374C28.5176 21.1815 28.6537 22.367 29.7043 23.2682C31.661 24.9443 37.8018 26.6253 38.1978 29.301C38.2634 29.7419 38.2294 29.884 37.9828 30.2398C37.6148 30.7718 35.3411 32.6678 34.763 32.9508C33.6103 33.5168 31.7193 32.7491 30.5788 32.3301C27.1877 31.084 24.0152 29.1321 20.5755 27.9965V56.1783C20.5755 56.2949 20.1018 57.3467 19.9937 57.535C18.5642 60.0309 14.8816 60.1998 13.1411 57.9382C10.497 60.9455 5.94719 59.4965 5.58767 55.4496L5.58524 40.8455H3.83261C2.24638 40.8455 0.2982 38.5087 0.145163 36.9662C0.486459 32.3981 -0.311517 27.1512 0.145163 22.6633ZM5.58403 39.1487V27.088C5.58403 26.318 7.12897 25.7908 7.27836 27.0856L7.28929 55.4386C7.62087 58.3026 11.2755 58.7168 12.2047 56.0301C12.4889 52.8079 11.918 49.1702 12.2338 45.9989C12.2861 45.4743 12.4099 44.9083 13.0294 44.8463C13.7873 44.771 13.9804 45.3625 14.0435 45.9989C14.3083 48.6455 14.0569 52.2188 14.0508 54.9722C14.0496 55.69 13.8176 55.6779 14.2221 56.4868C15.2472 58.5382 18.1998 58.1726 18.8265 56.0046L18.9346 26.901C19.5261 25.6512 20.9836 26.324 21.965 26.6629C25.9039 28.0196 29.5646 30.6334 33.7136 31.4787L36.4002 29.5014C36.4865 29.1479 35.5087 28.4496 35.2379 28.2637C32.9958 26.7321 28.9233 25.69 27.4852 23.3095C26.7905 22.1581 26.646 20.9095 25.6464 19.82C24.1646 18.2046 21.382 18.0224 19.3087 17.9325C15.7233 17.7771 10.8759 17.6896 7.3318 17.9325C4.26257 18.1427 2.06662 20.0653 1.83221 23.205C1.51642 27.4293 2.08241 32.0398 1.83221 36.3054C1.99496 38.4953 3.50103 39.371 5.58524 39.1487H5.58403Z" fill="black"/>
<path id="Vector_2" d="M34.3542 59.9969H33.266C30.119 59.2183 30.4384 54.5361 33.8101 54.5361C36.0437 54.5361 37.3251 57.0637 35.9757 58.8952C35.536 59.4928 34.9992 59.7041 34.3542 59.9969ZM33.4736 56.2645C32.5299 56.477 32.4765 58.0596 33.5987 58.2758C35.151 58.5746 35.3089 55.8503 33.4736 56.2645Z" fill="black"/>
<path id="Vector_3" d="M47.6553 45.8205C47.1197 48.099 46.9363 49.8553 44.2096 50.063C39.9647 50.386 35.3104 49.8176 31.0217 50.0508L30.7254 50.1164C30.2007 50.7711 30.5396 51.5059 31.3922 51.5107L45.1691 51.5144C45.9938 51.7561 45.8881 52.9196 45.1181 53.1541L31.3873 53.2124C29.7367 53.1954 28.4979 51.846 28.8464 50.1698C28.9412 49.7156 29.4732 49.1253 29.4598 48.8314L25.8343 35.0217C25.6084 34.7192 23.2351 35.0423 22.6217 34.8492C21.7861 34.5869 21.876 33.365 22.691 33.2095C23.3043 33.0917 25.6217 33.1379 26.3201 33.201C26.7792 33.2423 27.0209 33.2885 27.2286 33.7439C27.3962 34.1107 27.8772 36.569 28.0193 36.6079L41.2837 36.6055C42.9282 30.382 51.3829 28.8626 54.8323 34.4277C58.1699 39.8132 53.8448 46.4715 47.6553 45.8168V45.8205ZM47.5011 32.7553C41.3019 33.6006 41.3189 43.48 47.8339 44.1164C56.4209 44.9557 56.3201 31.5516 47.5011 32.7553ZM41.1234 38.2998H28.4311L31.2671 48.3686L44.8193 48.2484C45.661 47.918 45.7302 46.2213 46.029 45.4476C43.074 44.2901 41.0918 41.5148 41.1246 38.301L41.1234 38.2998Z" fill="black"/>
<path id="Vector_4" d="M8.28699 1.97892C14.7582 -4.35994 24.2137 6.06961 17.0708 11.9384C10.6979 17.1745 2.26999 7.87325 8.28699 1.97892ZM12.3279 1.84896C5.65501 2.62508 7.27039 13.0024 13.9578 11.6044C19.8959 10.3631 18.6036 1.119 12.3279 1.84896Z" fill="black"/>
<path id="Vector_5" d="M41.8162 54.0868C45.4636 53.5329 46.1401 58.9208 42.8474 59.4831C39.0069 60.139 38.3729 54.6102 41.8162 54.0868ZM43.0186 56.0362C42.0397 55.1386 40.5858 56.5026 41.4822 57.5155C42.4271 58.5831 44.0571 56.9884 43.0186 56.0362Z" fill="black"/>
<path id="Vector_6" d="M49.4766 34.2867C49.5058 34.3207 50.056 34.4434 50.3013 34.611C51.0045 35.0883 52.5349 37.1021 51.0677 37.4264C50.0244 37.6571 50.1361 36.7013 49.6466 36.2361C48.9228 35.5474 47.1641 35.9069 47.4252 36.8786C47.6037 37.5405 49.2118 37.5867 49.7985 37.781C51.958 38.4964 52.4766 41.2061 50.3936 42.3235C50.1689 42.4438 49.7098 42.4887 49.5811 42.5992C49.3673 42.7826 49.5883 43.9948 48.5766 43.9644C47.5649 43.934 47.8697 42.6867 47.7568 42.5543C47.7252 42.5166 47.0766 42.3357 46.8434 42.1984C46.0794 41.7478 44.6402 40.0608 45.7673 39.383C46.8203 38.7502 46.9284 39.9733 47.2843 40.4239C47.9499 41.2668 50.2211 41.1211 50.0159 40.1178C49.8106 39.1146 48.347 39.2919 47.5831 39.0332C45.4454 38.3093 45.0118 35.8328 46.9357 34.6146C47.1811 34.4591 47.7276 34.3207 47.7568 34.2867C47.843 34.1883 47.5527 32.7709 48.6458 32.8681C49.7195 32.9628 49.3454 34.1324 49.4754 34.2867H49.4766Z" fill="black"/>
</g>
</g>
</svg>
