<svg width="36" height="45" viewBox="0 0 36 45" fill="none" xmlns="http://www.w3.org/2000/svg">
<g id="Layer_1" clip-path="url(#clip0_4542_5186)">
<g id="Group">
<path id="Vector" d="M33.7766 44.4882H2.13771C1.00114 44.1951 0.293143 43.4871 0 42.3497V2.82681C0.322286 1.60539 1.14257 0.796243 2.43429 0.684814H33.4809C34.8463 0.802243 35.8003 1.76053 35.9177 3.12253V42.0531C35.8063 43.3448 34.9971 44.1651 33.7766 44.4882ZM10.2609 2.3991H2.35114C2.18743 2.3991 1.76743 2.78653 1.75029 2.99567V42.1808C1.84714 42.4714 2.01429 42.6402 2.30571 42.7371H33.6069C33.8983 42.6402 34.0663 42.4714 34.1623 42.1808V2.99567C34.1451 2.78653 33.7251 2.3991 33.5614 2.3991H25.6517V4.10996H31.8514C32.0151 4.10996 32.4351 4.49739 32.4523 4.70653V40.47C32.3554 40.7605 32.1883 40.9294 31.8969 41.0262H4.01657C3.726 40.9294 3.558 40.7614 3.46114 40.47V4.70653C3.47829 4.49739 3.89829 4.10996 4.062 4.10996H10.2617V2.3991H10.2609ZM23.9426 2.3991H11.9709V4.10996H23.9426V2.3991ZM10.2609 5.82081H5.13V39.3557H30.7834V5.82081H25.6526V7.0611C25.6526 8.01939 24.342 9.21253 23.3777 9.2331C19.9251 9.06081 16.2009 9.49367 12.78 9.24596C11.8654 9.17996 11.0229 8.76424 10.5874 7.93196C10.5103 7.78453 10.2609 7.17596 10.2609 7.0611V5.82081ZM23.9426 5.82081H11.9709C11.9589 6.64539 11.8234 7.43653 12.864 7.53596L23.2106 7.52653C24.0523 7.28739 23.9726 6.54596 23.9426 5.82081Z" fill="#57CC99"/>
<path id="Vector_2" d="M25.6534 15.6592L19.4554 21.8203C18.96 22.2232 18.6669 22.4006 18.0849 21.99L14.2372 18.1414L9.91459 22.4563C9.10802 22.9629 8.20287 22.1452 8.68287 21.3086L13.8737 16.1512C14.1394 16.0397 14.466 16.0414 14.7034 16.218L18.672 20.1L24.3703 14.3743H22.788C22.7357 14.3743 22.3363 14.112 22.2763 14.0306C21.9326 13.56 22.176 12.8503 22.7426 12.7037C23.226 12.5786 25.9766 12.5923 26.5526 12.6617C27.03 12.7183 27.3077 12.9952 27.3652 13.4743C27.4337 14.0494 27.4483 16.8026 27.3232 17.286C27.1766 17.8526 26.4669 18.0969 25.9972 17.7523C25.9157 17.6932 25.6534 17.2929 25.6534 17.2406V15.6583V15.6592Z" fill="#57CC99"/>
<path id="Vector_3" d="M9.21171 27.3985L26.5526 27.3771C27.624 27.4996 27.6471 28.9611 26.5526 29.0922H9.36171C8.34428 28.9705 8.26542 27.6736 9.21256 27.3994L9.21171 27.3985Z" fill="#57CC99"/>
<path id="Vector_4" d="M9.21171 30.8203L26.5526 30.7988C27.624 30.9214 27.6471 32.3828 26.5526 32.514H9.36171C8.34428 32.3923 8.26542 31.0954 9.21256 30.8211L9.21171 30.8203Z" fill="#57CC99"/>
<path id="Vector_5" d="M9.21171 34.242L26.5526 34.2206C27.624 34.3432 27.6471 35.8046 26.5526 35.9357H9.36171C8.34428 35.814 8.26542 34.5172 9.21256 34.2429L9.21171 34.242Z" fill="#57CC99"/>
</g>
</g>
<defs>
<clipPath id="clip0_4542_5186">
<rect width="36" height="43.8857" fill="white" transform="translate(0 0.602539)"/>
</clipPath>
</defs>
</svg>
