<svg width="36" height="36" viewBox="0 0 36 36" fill="none" xmlns="http://www.w3.org/2000/svg">
<g id="Chart--histogram">
<path id="Vector" d="M6.75 18C10.0943 18 11.5114 15.4676 12.7628 13.233C14.0334 10.9621 15.1312 9 18 9C20.8687 9 21.9666 10.9621 23.2372 13.233C24.4886 15.4676 25.9057 18 29.25 18H33.75V15.75H29.25C27.323 15.75 26.4562 14.3767 25.201 12.1338C23.8584 9.73609 22.1885 6.75 18 6.75C13.8115 6.75 12.1416 9.73609 10.799 12.1338C9.54383 14.3767 8.67701 15.75 6.75 15.75H4.5V2.25H2.25V31.5C2.25 32.0967 2.48705 32.669 2.90901 33.091C3.33097 33.5129 3.90326 33.75 4.5 33.75H33.75V31.5H31.5V24.75H29.25V31.5H24.7491L24.75 22.5H22.5V31.5H18V18H15.75V31.5H11.2491L11.25 22.5H9V31.5H4.5V18H6.75Z" fill="#57CC99"/>
</g>
</svg>
