<svg width="220" height="25" viewBox="0 0 220 25" fill="none" xmlns="http://www.w3.org/2000/svg">
<g id="CK">
<path d="M25.2604 9.97693C24.3291 9.97693 23.5727 9.89925 22.9912 9.74387C22.4145 9.58441 21.9724 9.36362 21.6652 9.08149C21.3579 8.79936 21.1475 8.46817 21.0341 8.08792C20.9206 7.70766 20.8639 7.29469 20.8639 6.84901V3.82536C20.8639 3.36741 20.9182 2.94422 21.027 2.55579C21.1404 2.16327 21.3484 1.82185 21.651 1.53155C21.9583 1.24125 22.4026 1.01636 22.9841 0.856899C23.5656 0.693348 24.3243 0.611572 25.2604 0.611572C26.1538 0.611572 26.8724 0.691304 27.416 0.850766C27.9644 1.00614 28.3804 1.22693 28.6641 1.51315C28.9477 1.79936 29.1392 2.13669 29.2385 2.52512C29.3377 2.90947 29.3874 3.33061 29.3874 3.78856V3.89896L27.3239 4.10748V3.6475C27.3239 3.22226 27.2624 2.89516 27.1395 2.66619C27.0166 2.43313 26.8062 2.27162 26.5084 2.18167C26.2106 2.08762 25.7945 2.0406 25.2604 2.0406C24.4803 2.0406 23.9036 2.14691 23.5301 2.35953C23.1567 2.57214 22.9699 2.9892 22.9699 3.6107V7.03301C22.9699 7.44598 23.0527 7.76286 23.2181 7.98365C23.3836 8.20036 23.6341 8.3496 23.9698 8.43137C24.3101 8.50906 24.7427 8.5479 25.2674 8.5479C25.8016 8.5479 26.2177 8.50906 26.5155 8.43137C26.8133 8.3496 27.0213 8.19831 27.1395 7.97752C27.2624 7.75264 27.3239 7.42553 27.3239 6.99621V6.70795H29.3874V6.87355C29.3874 7.31922 29.3401 7.73015 29.2456 8.10632C29.151 8.48248 28.9643 8.81163 28.6854 9.09376C28.4064 9.37179 27.9928 9.5885 27.4444 9.74387C26.896 9.89925 26.168 9.97693 25.2604 9.97693Z" fill="#22577A"/>
<path d="M37.7961 9.97693C36.8553 9.97693 36.0824 9.89311 35.4773 9.72547C34.8722 9.55783 34.4018 9.32682 34.0662 9.03242C33.7305 8.73803 33.4941 8.39457 33.357 8.00205C33.2247 7.60953 33.1585 7.19043 33.1585 6.74475V3.91122C33.1585 3.45328 33.2247 3.026 33.357 2.62939C33.4894 2.22869 33.7234 1.87705 34.0591 1.57448C34.3947 1.27191 34.8651 1.03681 35.4702 0.869166C36.0753 0.697437 36.8506 0.611572 37.7961 0.611572C38.699 0.611572 39.4412 0.701526 40.0227 0.881432C40.6089 1.06134 41.0651 1.30871 41.3913 1.62355C41.7222 1.93429 41.9515 2.29411 42.0791 2.70299C42.2115 3.11186 42.2777 3.54528 42.2777 4.00322V6.64662C42.2777 7.0923 42.2115 7.51549 42.0791 7.91619C41.9467 8.3128 41.7151 8.66648 41.3842 8.97723C41.058 9.28797 40.6042 9.5333 40.0227 9.71321C39.4412 9.88903 38.699 9.97693 37.7961 9.97693ZM37.7961 8.5479C38.5903 8.5479 39.1836 8.43546 39.5759 8.21058C39.9683 7.9857 40.1645 7.56455 40.1645 6.94714V3.66589C40.1645 3.05667 39.966 2.63348 39.5689 2.39633C39.1765 2.15918 38.5856 2.0406 37.7961 2.0406C37.0161 2.0406 36.3991 2.15713 35.9453 2.39019C35.4962 2.61917 35.2716 3.0444 35.2716 3.66589V6.94714C35.2716 7.56864 35.4962 7.99183 35.9453 8.21671C36.3944 8.43751 37.0113 8.5479 37.7961 8.5479Z" fill="#22577A"/>
<path d="M46.4884 9.81747V0.764902H48.8072L51.7642 5.17466L54.7212 0.764902H57.0825V9.81747H55.1112V3.12617L52.4946 7.18634H51.0835L48.4598 3.2795V9.81747H46.4884Z" fill="#22577A"/>
<path d="M61.506 0.764902H65.6118C66.7605 0.764902 67.6162 0.991829 68.1788 1.44568C68.7413 1.89545 69.0226 2.63143 69.0226 3.65363C69.0226 4.35281 68.9115 4.92728 68.6893 5.37705C68.4671 5.82273 68.0913 6.15392 67.5618 6.37063C67.0371 6.58733 66.3185 6.69568 65.4061 6.69568H63.6121V9.81747H61.506V0.764902ZM65.7394 5.36478C66.2736 5.36478 66.6258 5.2319 66.796 4.96613C66.9662 4.69627 67.0513 4.28943 67.0513 3.74563C67.0513 3.27133 66.9686 2.87267 66.8031 2.54966C66.6376 2.22255 66.3067 2.059 65.8103 2.059H63.6121V5.36478H65.7394Z" fill="#22577A"/>
<path d="M72.7086 0.764902H74.8147V8.39457H79.1899V9.81747H72.7086V0.764902Z" fill="#22577A"/>
<path d="M82.5214 8.45591H84.4289V2.12033H82.5214V0.764902H88.4212V2.12033H86.5278V8.45591H88.4212V9.81747H82.5214V8.45591Z" fill="#22577A"/>
<path d="M91.7668 9.81747L95.2131 0.764902H98.007L101.496 9.81747H99.2621L98.6806 8.09405H94.5678L93.9651 9.81747H91.7668ZM95.0642 6.68342H98.1985L96.6597 2.12647L95.0642 6.68342Z" fill="#22577A"/>
<path d="M105.068 0.764902H106.65L112.089 6.97168V0.764902H113.961V9.81747H112.379L106.962 3.70269V9.81747H105.068V0.764902Z" fill="#22577A"/>
<path d="M122.568 9.97693C121.637 9.97693 120.88 9.89925 120.299 9.74387C119.722 9.58441 119.28 9.36362 118.973 9.08149C118.665 8.79936 118.455 8.46817 118.342 8.08792C118.228 7.70766 118.171 7.29469 118.171 6.84901V3.82536C118.171 3.36741 118.226 2.94422 118.334 2.55579C118.448 2.16327 118.656 1.82185 118.959 1.53155C119.266 1.24125 119.71 1.01636 120.292 0.856899C120.873 0.693348 121.632 0.611572 122.568 0.611572C123.461 0.611572 124.18 0.691304 124.724 0.850766C125.272 1.00614 125.688 1.22693 125.972 1.51315C126.255 1.79936 126.447 2.13669 126.546 2.52512C126.645 2.90947 126.695 3.33061 126.695 3.78856V3.89896L124.631 4.10748V3.6475C124.631 3.22226 124.57 2.89516 124.447 2.66619C124.324 2.43313 124.114 2.27162 123.816 2.18167C123.518 2.08762 123.102 2.0406 122.568 2.0406C121.788 2.0406 121.211 2.14691 120.838 2.35953C120.464 2.57214 120.277 2.9892 120.277 3.6107V7.03301C120.277 7.44598 120.36 7.76286 120.526 7.98365C120.691 8.20036 120.942 8.3496 121.277 8.43137C121.618 8.50906 122.05 8.5479 122.575 8.5479C123.109 8.5479 123.525 8.50906 123.823 8.43137C124.121 8.3496 124.329 8.19831 124.447 7.97752C124.57 7.75264 124.631 7.42553 124.631 6.99621V6.70795H126.695V6.87355C126.695 7.31922 126.648 7.73015 126.553 8.10632C126.459 8.48248 126.272 8.81163 125.993 9.09376C125.714 9.37179 125.3 9.5885 124.752 9.74387C124.204 9.89925 123.476 9.97693 122.568 9.97693Z" fill="#22577A"/>
<path d="M130.679 0.764902H137.536V2.13873H132.778V4.54294H136.997V5.85544H132.778V8.44364H137.614V9.81747H130.679V0.764902Z" fill="#22577A"/>
<path d="M143.69 7.10661V9.81747H141.584V0.764902H143.69V5.15626L147.76 0.764902H150.086L146.342 4.80667L150.348 9.81747H147.973L144.845 5.85544L143.69 7.10661Z" fill="#22577A"/>
<path d="M152.729 9.81747L156.176 0.764902H158.97L162.458 9.81747H160.225L159.643 8.09405H155.53L154.928 9.81747H152.729ZM156.027 6.68342H159.161L157.622 2.12647L156.027 6.68342Z" fill="#22577A"/>
<path d="M166.031 9.81747V0.764902H170.548C171.475 0.764902 172.191 0.877343 172.697 1.10223C173.202 1.32711 173.552 1.64195 173.746 2.04674C173.945 2.45153 174.044 2.92582 174.044 3.46963C174.044 3.84171 174.004 4.1913 173.923 4.51841C173.848 4.84142 173.699 5.12764 173.477 5.37705C173.254 5.62647 172.931 5.82682 172.505 5.9781L174.526 9.81747H172.342L170.505 6.24183H168.137V9.81747H166.031ZM168.137 4.9416H170.725C171.085 4.9416 171.356 4.88026 171.541 4.7576C171.73 4.63085 171.857 4.46321 171.924 4.25468C171.995 4.04206 172.03 3.80696 172.03 3.54936C172.03 3.30404 171.999 3.06689 171.938 2.83792C171.881 2.60894 171.765 2.4229 171.59 2.2798C171.42 2.1326 171.16 2.059 170.81 2.059H168.137V4.9416Z" fill="#22577A"/>
<path d="M180.12 9.81747V2.151H177.205V0.764902H185.133V2.151H182.219V9.81747H180.12Z" fill="#22577A"/>
<path d="M0.697815 24.2395H1.65157V21.0717H0.697815V20.394H3.64772V21.0717H2.70105V24.2395H3.64772V24.9203H0.697815V24.2395Z" fill="#22577A"/>
<path d="M6.61045 20.394H7.4011L10.1205 23.4974V20.394H11.0566V24.9203H10.2659L7.55711 21.8629V24.9203H6.61045V20.394Z" fill="#22577A"/>
<path d="M14.1328 24.9203V20.394H16.4019C16.9077 20.394 17.3001 20.4645 17.579 20.6056C17.858 20.7446 18.053 20.9337 18.1641 21.1729C18.2751 21.4101 18.3307 21.6768 18.3307 21.9733V23.3624C18.3307 23.663 18.2716 23.9308 18.1534 24.1659C18.0376 24.401 17.8402 24.586 17.5613 24.7209C17.2824 24.8538 16.8971 24.9203 16.4055 24.9203H14.1328ZM15.1858 24.2119H16.3133C16.6844 24.2119 16.9373 24.1526 17.072 24.034C17.2091 23.9155 17.2777 23.7304 17.2777 23.479V21.8537C17.2777 21.6084 17.2079 21.4223 17.0685 21.2956C16.9314 21.1668 16.6796 21.1024 16.3133 21.1024H15.1858V24.2119Z" fill="#22577A"/>
<path d="M21.1871 24.2395H22.1408V21.0717H21.1871V20.394H24.137V21.0717H23.1903V24.2395H24.137V24.9203H21.1871V24.2395Z" fill="#22577A"/>
<path d="M26.6742 24.9203L28.3974 20.394H29.7943L31.5387 24.9203H30.4219L30.1311 24.0586H28.0747L27.7733 24.9203H26.6742ZM28.3229 23.3532H29.89L29.1207 21.0748L28.3229 23.3532Z" fill="#22577A"/>
<path d="M34.8702 22.2523L34.4908 22.1113C34.5523 22.052 34.6232 21.9671 34.7036 21.8568C34.7839 21.7443 34.8548 21.6186 34.9163 21.4796C34.9777 21.3405 35.0085 21.2005 35.0085 21.0594H34.4235V20.2131H35.5651V20.8969C35.5651 21.1013 35.5226 21.2966 35.4375 21.4826C35.3524 21.6666 35.2543 21.8271 35.1432 21.9641C35.0345 22.099 34.9435 22.1951 34.8702 22.2523Z" fill="#22577A"/>
<path d="M40.641 25C40.2841 25 39.9248 24.9632 39.5632 24.8896C39.2015 24.816 38.8895 24.7158 38.6271 24.5891L38.9888 23.9236C39.1897 24.0156 39.4296 24.0995 39.7085 24.1751C39.9898 24.2487 40.2924 24.2855 40.6162 24.2855C40.8313 24.2855 40.9932 24.2589 41.1019 24.2058C41.213 24.1526 41.2875 24.079 41.3253 23.985C41.3655 23.8889 41.3856 23.7795 41.3856 23.6568C41.3856 23.573 41.369 23.4964 41.3359 23.4268C41.3028 23.3553 41.2343 23.2899 41.1303 23.2306C41.0286 23.1693 40.8726 23.112 40.6623 23.0589L39.7688 22.8319C39.4852 22.7583 39.2641 22.6602 39.1058 22.5375C38.9498 22.4128 38.8399 22.2677 38.776 22.1021C38.7146 21.9365 38.6839 21.7576 38.6839 21.5654C38.6839 21.2833 38.763 21.0502 38.9214 20.8662C39.0821 20.6822 39.2996 20.5453 39.5738 20.4553C39.8503 20.3633 40.16 20.3173 40.5027 20.3173C40.8478 20.3173 41.1657 20.3459 41.4565 20.4032C41.7472 20.4604 42.0131 20.5494 42.2542 20.67L41.9564 21.3109C41.7626 21.2312 41.551 21.1647 41.3218 21.1116C41.0925 21.0584 40.8502 21.0318 40.5949 21.0318C40.3278 21.0318 40.1151 21.0676 39.9567 21.1392C39.7983 21.2087 39.7192 21.3405 39.7192 21.5348C39.7192 21.6901 39.7653 21.8097 39.8574 21.8936C39.952 21.9774 40.1316 22.054 40.3964 22.1235L41.2863 22.3535C41.6385 22.4455 41.9032 22.5917 42.0805 22.7921C42.2578 22.9924 42.3464 23.2705 42.3464 23.6262C42.3464 23.8817 42.2873 24.1138 42.1691 24.3223C42.051 24.5288 41.8666 24.6933 41.616 24.816C41.3655 24.9387 41.0405 25 40.641 25Z" fill="#22577A"/>
<path d="M48.7541 24.2456H50.2858V21.1453L48.8356 21.3109L48.7399 20.6148L50.6119 20.394H51.3388V24.2456H52.6825V24.9203H48.7541V24.2456Z" fill="#22577A"/>
<path d="M57.2372 25C56.8803 25 56.521 24.9632 56.1594 24.8896C55.7977 24.816 55.4857 24.7158 55.2234 24.5891L55.585 23.9236C55.7859 24.0156 56.0258 24.0995 56.3047 24.1751C56.586 24.2487 56.8886 24.2855 57.2124 24.2855C57.4275 24.2855 57.5894 24.2589 57.6982 24.2058C57.8092 24.1526 57.8837 24.079 57.9215 23.985C57.9617 23.8889 57.9818 23.7795 57.9818 23.6568C57.9818 23.573 57.9653 23.4964 57.9322 23.4268C57.8991 23.3553 57.8305 23.2899 57.7265 23.2306C57.6249 23.1693 57.4689 23.112 57.2585 23.0589L56.365 22.8319C56.0814 22.7583 55.8604 22.6602 55.702 22.5375C55.546 22.4128 55.4361 22.2677 55.3723 22.1021C55.3108 21.9365 55.2801 21.7576 55.2801 21.5654C55.2801 21.2833 55.3593 21.0502 55.5176 20.8662C55.6784 20.6822 55.8958 20.5453 56.17 20.4553C56.4466 20.3633 56.7562 20.3173 57.099 20.3173C57.4441 20.3173 57.762 20.3459 58.0527 20.4032C58.3434 20.4604 58.6094 20.5494 58.8505 20.67L58.5526 21.3109C58.3588 21.2312 58.1473 21.1647 57.918 21.1116C57.6887 21.0584 57.4464 21.0318 57.1911 21.0318C56.924 21.0318 56.7113 21.0676 56.5529 21.1392C56.3946 21.2087 56.3154 21.3405 56.3154 21.5348C56.3154 21.6901 56.3615 21.8097 56.4537 21.8936C56.5482 21.9774 56.7279 22.054 56.9926 22.1235L57.8825 22.3535C58.2347 22.4455 58.4994 22.5917 58.6767 22.7921C58.854 22.9924 58.9426 23.2705 58.9426 23.6262C58.9426 23.8817 58.8835 24.1138 58.7654 24.3223C58.6472 24.5288 58.4628 24.6933 58.2123 24.816C57.9617 24.9387 57.6367 25 57.2372 25Z" fill="#22577A"/>
<path d="M62.6641 24.9203V21.087H61.2069V20.394H65.1708V21.087H63.7136V24.9203H62.6641Z" fill="#22577A"/>
<path d="M71.2665 24.9203V20.394H73.5356C74.0415 20.394 74.4338 20.4645 74.7128 20.6056C74.9917 20.7446 75.1867 20.9337 75.2978 21.1729C75.4089 21.4101 75.4644 21.6768 75.4644 21.9733V23.3624C75.4644 23.663 75.4053 23.9308 75.2871 24.1659C75.1713 24.401 74.9739 24.586 74.695 24.7209C74.4161 24.8538 74.0308 24.9203 73.5392 24.9203H71.2665ZM72.3195 24.2119H73.447C73.8181 24.2119 74.071 24.1526 74.2057 24.034C74.3428 23.9155 74.4114 23.7304 74.4114 23.479V21.8537C74.4114 21.6084 74.3417 21.4223 74.2022 21.2956C74.0651 21.1668 73.8134 21.1024 73.447 21.1024H72.3195V24.2119Z" fill="#22577A"/>
<path d="M78.3208 24.2395H79.2745V21.0717H78.3208V20.394H81.2707V21.0717H80.324V24.2395H81.2707V24.9203H78.3208V24.2395Z" fill="#22577A"/>
<path d="M86.4423 25C85.9766 25 85.5925 24.9612 85.29 24.8835C84.9898 24.8037 84.7546 24.6933 84.5844 24.5523C84.4166 24.4112 84.2984 24.2456 84.2299 24.0555C84.1613 23.8654 84.127 23.6589 84.127 23.436V21.9242C84.127 21.6952 84.1601 21.4837 84.2263 21.2894C84.2949 21.0932 84.413 20.9225 84.5809 20.7773C84.7511 20.6322 84.9863 20.5197 85.2864 20.44C85.589 20.3582 85.9743 20.3173 86.4423 20.3173C86.8961 20.3173 87.2637 20.3551 87.545 20.4308C87.8286 20.5064 88.0449 20.6127 88.1938 20.7497C88.3451 20.8867 88.4479 21.0472 88.5023 21.2312C88.559 21.4152 88.5873 21.6155 88.5873 21.8322V21.9028L87.552 21.9702V21.7893C87.552 21.4847 87.4658 21.2823 87.2932 21.1821C87.1207 21.0819 86.837 21.0318 86.4423 21.0318C86.0523 21.0318 85.745 21.085 85.5204 21.1913C85.2959 21.2976 85.1836 21.5061 85.1836 21.8169V23.528C85.1836 23.7345 85.2333 23.893 85.3325 24.0034C85.4342 24.1117 85.5784 24.1863 85.7651 24.2272C85.9542 24.2661 86.1799 24.2855 86.4423 24.2855C86.7094 24.2855 86.9316 24.2661 87.1089 24.2272C87.2861 24.1863 87.4185 24.1117 87.506 24.0034C87.5958 23.893 87.6407 23.7345 87.6407 23.528V23.1969H86.5841V22.5989H88.5909V24.9203H88.0342L87.8676 24.399C87.8534 24.4358 87.8239 24.4869 87.779 24.5523C87.7341 24.6177 87.6608 24.6852 87.5591 24.7547C87.4575 24.8221 87.3169 24.8794 87.1372 24.9264C86.9576 24.9755 86.7259 25 86.4423 25Z" fill="#22577A"/>
<path d="M91.5501 24.2395H92.5038V21.0717H91.5501V20.394H94.5V21.0717H93.5533V24.2395H94.5V24.9203H91.5501V24.2395Z" fill="#22577A"/>
<path d="M98.381 24.9203V21.087H96.9238V20.394H100.888V21.087H99.4305V24.9203H98.381Z" fill="#22577A"/>
<path d="M102.766 24.9203L104.489 20.394H105.886L107.63 24.9203H106.513L106.222 24.0586H104.166L103.865 24.9203H102.766ZM104.414 23.3532H105.981L105.212 21.0748L104.414 23.3532Z" fill="#22577A"/>
<path d="M110.281 20.394H111.334V24.2088H113.521V24.9203H110.281V20.394Z" fill="#22577A"/>
<path d="M121.815 25C121.35 25 120.971 24.9612 120.681 24.8835C120.392 24.8037 120.171 24.6933 120.018 24.5523C119.864 24.4112 119.759 24.2456 119.702 24.0555C119.645 23.8654 119.617 23.6589 119.617 23.436V21.9242C119.617 21.6952 119.644 21.4837 119.699 21.2894C119.755 21.0932 119.859 20.9225 120.011 20.7773C120.164 20.6322 120.386 20.5197 120.677 20.44C120.968 20.3582 121.347 20.3173 121.815 20.3173C122.262 20.3173 122.621 20.3572 122.893 20.4369C123.167 20.5146 123.375 20.625 123.517 20.7681C123.659 20.9112 123.755 21.0799 123.804 21.2741C123.854 21.4663 123.879 21.6768 123.879 21.9058V21.961L122.847 22.0653V21.8353C122.847 21.6227 122.816 21.4591 122.755 21.3446C122.693 21.2281 122.588 21.1473 122.439 21.1024C122.29 21.0554 122.082 21.0318 121.815 21.0318C121.425 21.0318 121.137 21.085 120.95 21.1913C120.763 21.2976 120.67 21.5061 120.67 21.8169V23.528C120.67 23.7345 120.711 23.893 120.794 24.0034C120.877 24.1117 121.002 24.1863 121.17 24.2272C121.34 24.2661 121.556 24.2855 121.819 24.2855C122.086 24.2855 122.294 24.2661 122.443 24.2272C122.592 24.1863 122.696 24.1107 122.755 24.0003C122.816 23.8879 122.847 23.7243 122.847 23.5096V23.3655H123.879V23.4483C123.879 23.6712 123.855 23.8766 123.808 24.0647C123.761 24.2528 123.667 24.4174 123.528 24.5584C123.388 24.6974 123.181 24.8058 122.907 24.8835C122.633 24.9612 122.269 25 121.815 25Z" fill="#22577A"/>
<path d="M126.303 24.9203L128.026 20.394H129.423L131.167 24.9203H130.05L129.759 24.0586H127.703L127.402 24.9203H126.303ZM127.951 23.3532H129.518L128.749 21.0748L127.951 23.3532Z" fill="#22577A"/>
<path d="M133.818 24.9203V20.394H136.076C136.54 20.394 136.898 20.4502 137.151 20.5627C137.404 20.6751 137.578 20.8325 137.675 21.0349C137.775 21.2373 137.824 21.4745 137.824 21.7464C137.824 21.9324 137.804 22.1072 137.764 22.2707C137.726 22.4322 137.652 22.5754 137.541 22.7001C137.43 22.8248 137.268 22.9249 137.055 23.0006L138.065 24.9203H136.973L136.055 23.1325H134.871V24.9203H133.818ZM134.871 22.4823H136.165C136.345 22.4823 136.481 22.4517 136.573 22.3903C136.667 22.327 136.731 22.2431 136.764 22.1389C136.8 22.0326 136.817 21.915 136.817 21.7862C136.817 21.6636 136.802 21.545 136.771 21.4305C136.743 21.316 136.685 21.223 136.598 21.1514C136.512 21.0778 136.382 21.041 136.208 21.041H134.871V22.4823Z" fill="#22577A"/>
<path d="M140.808 24.9203V20.394H142.822C143.311 20.394 143.69 20.4369 143.957 20.5228C144.226 20.6087 144.413 20.7395 144.517 20.9153C144.623 21.0891 144.676 21.3119 144.676 21.5838C144.676 21.8148 144.633 22.0029 144.545 22.1481C144.458 22.2932 144.278 22.3955 144.006 22.4547C144.247 22.4834 144.432 22.5467 144.559 22.6449C144.689 22.741 144.778 22.8657 144.825 23.019C144.875 23.1723 144.9 23.3481 144.9 23.5464C144.9 24.0207 144.758 24.3683 144.474 24.5891C144.193 24.8099 143.727 24.9203 143.077 24.9203H140.808ZM141.861 22.2155H142.95C143.155 22.2155 143.303 22.192 143.393 22.145C143.485 22.098 143.543 22.0285 143.567 21.9365C143.59 21.8424 143.602 21.728 143.602 21.593C143.602 21.4336 143.581 21.3129 143.538 21.2312C143.496 21.1473 143.414 21.0911 143.294 21.0625C143.173 21.0318 142.994 21.0165 142.755 21.0165H141.861V22.2155ZM141.861 24.2824H142.882C143.157 24.2824 143.362 24.263 143.499 24.2242C143.639 24.1853 143.732 24.1117 143.779 24.0034C143.827 23.893 143.85 23.7335 143.85 23.525C143.85 23.3737 143.833 23.2418 143.797 23.1294C143.764 23.0149 143.686 22.926 143.563 22.8626C143.443 22.7972 143.251 22.7645 142.989 22.7645H141.861V24.2824Z" fill="#22577A"/>
<path d="M149.912 25C149.442 25 149.055 24.9581 148.753 24.8743C148.45 24.7905 148.215 24.6749 148.047 24.5278C147.879 24.3806 147.761 24.2088 147.692 24.0126C147.626 23.8163 147.593 23.6068 147.593 23.3839V21.9671C147.593 21.7382 147.626 21.5245 147.692 21.3262C147.759 21.1259 147.876 20.9501 148.043 20.7988C148.211 20.6475 148.446 20.5299 148.749 20.4461C149.052 20.3603 149.439 20.3173 149.912 20.3173C150.363 20.3173 150.734 20.3623 151.025 20.4523C151.318 20.5422 151.546 20.6659 151.71 20.8233C151.875 20.9787 151.99 21.1586 152.053 21.363C152.12 21.5675 152.153 21.7842 152.153 22.0131V23.3348C152.153 23.5577 152.12 23.7693 152.053 23.9696C151.987 24.1679 151.871 24.3448 151.706 24.5002C151.543 24.6555 151.316 24.7782 151.025 24.8681C150.734 24.9561 150.363 25 149.912 25ZM149.912 24.2855C150.309 24.2855 150.606 24.2293 150.802 24.1168C150.998 24.0044 151.096 23.7938 151.096 23.4851V21.8445C151.096 21.5399 150.997 21.3283 150.798 21.2097C150.602 21.0911 150.307 21.0318 149.912 21.0318C149.522 21.0318 149.213 21.0901 148.987 21.2066C148.762 21.3211 148.65 21.5337 148.65 21.8445V23.4851C148.65 23.7959 148.762 24.0075 148.987 24.1199C149.211 24.2303 149.52 24.2855 149.912 24.2855Z" fill="#22577A"/>
<path d="M155.123 20.394H155.913L158.633 23.4974V20.394H159.569V24.9203H158.778L156.069 21.8629V24.9203H155.123V20.394Z" fill="#22577A"/>
<path d="M166.203 20.394H169.632V21.0809H167.253V22.283H169.362V22.9393H167.253V24.2334H169.671V24.9203H166.203V20.394Z" fill="#22577A"/>
<path d="M172.024 20.394H173.162L174.254 21.8721L175.317 20.394H176.445L174.789 22.5958L176.505 24.9203H175.367L174.172 23.3042L173.08 24.9203H171.953L173.637 22.5774L172.024 20.394Z" fill="#22577A"/>
<path d="M181.134 25C180.669 25 180.291 24.9612 180 24.8835C179.711 24.8037 179.49 24.6933 179.337 24.5523C179.183 24.4112 179.078 24.2456 179.021 24.0555C178.965 23.8654 178.936 23.6589 178.936 23.436V21.9242C178.936 21.6952 178.963 21.4837 179.018 21.2894C179.074 21.0932 179.178 20.9225 179.33 20.7773C179.483 20.6322 179.706 20.5197 179.996 20.44C180.287 20.3582 180.666 20.3173 181.134 20.3173C181.581 20.3173 181.94 20.3572 182.212 20.4369C182.486 20.5146 182.694 20.625 182.836 20.7681C182.978 20.9112 183.074 21.0799 183.123 21.2741C183.173 21.4663 183.198 21.6768 183.198 21.9058V21.961L182.166 22.0653V21.8353C182.166 21.6227 182.135 21.4591 182.074 21.3446C182.012 21.2281 181.907 21.1473 181.758 21.1024C181.609 21.0554 181.401 21.0318 181.134 21.0318C180.744 21.0318 180.456 21.085 180.269 21.1913C180.083 21.2976 179.989 21.5061 179.989 21.8169V23.528C179.989 23.7345 180.031 23.893 180.113 24.0034C180.196 24.1117 180.321 24.1863 180.489 24.2272C180.659 24.2661 180.876 24.2855 181.138 24.2855C181.405 24.2855 181.613 24.2661 181.762 24.2272C181.911 24.1863 182.015 24.1107 182.074 24.0003C182.135 23.8879 182.166 23.7243 182.166 23.5096V23.3655H183.198V23.4483C183.198 23.6712 183.174 23.8766 183.127 24.0647C183.08 24.2528 182.986 24.4174 182.847 24.5584C182.707 24.6974 182.501 24.8058 182.226 24.8835C181.952 24.9612 181.588 25 181.134 25Z" fill="#22577A"/>
<path d="M186.054 20.394H187.111V22.3198H189.408V20.394H190.465V24.9203H189.408V23.0343H187.111V24.9203H186.054V20.394Z" fill="#22577A"/>
<path d="M193.116 24.9203L194.839 20.394H196.236L197.98 24.9203H196.863L196.573 24.0586H194.516L194.215 24.9203H193.116ZM194.764 23.3532H196.331L195.562 21.0748L194.764 23.3532Z" fill="#22577A"/>
<path d="M200.631 20.394H201.422L204.141 23.4974V20.394H205.077V24.9203H204.286L201.578 21.8629V24.9203H200.631V20.394Z" fill="#22577A"/>
<path d="M210.362 25C209.896 25 209.512 24.9612 209.21 24.8835C208.91 24.8037 208.674 24.6933 208.504 24.5523C208.336 24.4112 208.218 24.2456 208.15 24.0555C208.081 23.8654 208.047 23.6589 208.047 23.436V21.9242C208.047 21.6952 208.08 21.4837 208.146 21.2894C208.215 21.0932 208.333 20.9225 208.501 20.7773C208.671 20.6322 208.906 20.5197 209.206 20.44C209.509 20.3582 209.894 20.3173 210.362 20.3173C210.816 20.3173 211.183 20.3551 211.465 20.4308C211.748 20.5064 211.965 20.6127 212.114 20.7497C212.265 20.8867 212.368 21.0472 212.422 21.2312C212.479 21.4152 212.507 21.6155 212.507 21.8322V21.9028L211.472 21.9702V21.7893C211.472 21.4847 211.386 21.2823 211.213 21.1821C211.04 21.0819 210.757 21.0318 210.362 21.0318C209.972 21.0318 209.665 21.085 209.44 21.1913C209.216 21.2976 209.103 21.5061 209.103 21.8169V23.528C209.103 23.7345 209.153 23.893 209.252 24.0034C209.354 24.1117 209.498 24.1863 209.685 24.2272C209.874 24.2661 210.1 24.2855 210.362 24.2855C210.629 24.2855 210.851 24.2661 211.029 24.2272C211.206 24.1863 211.338 24.1117 211.426 24.0034C211.516 23.893 211.56 23.7345 211.56 23.528V23.1969H210.504V22.5989H212.511V24.9203H211.954L211.787 24.399C211.773 24.4358 211.744 24.4869 211.699 24.5523C211.654 24.6177 211.581 24.6852 211.479 24.7547C211.377 24.8221 211.237 24.8794 211.057 24.9264C210.877 24.9755 210.646 25 210.362 25Z" fill="#22577A"/>
<path d="M215.583 20.394H219.012V21.0809H216.633V22.283H218.742V22.9393H216.633V24.2334H219.051V24.9203H215.583V20.394Z" fill="#22577A"/>
</g>
</svg>
