<svg width="48" height="49" viewBox="0 0 48 49" fill="none" xmlns="http://www.w3.org/2000/svg">
<g id="Layer_1" clip-path="url(#clip0_4542_4735)">
<g id="Group">
<path id="Vector" d="M18.2378 4.36008C18.4508 2.55896 19.9929 0.965311 21.7929 0.75447C24.6707 0.418022 26.6164 2.65989 26.5178 5.42213C28.1742 4.59335 30.0807 4.61017 31.5421 5.82363C32.0557 6.25092 33.0056 7.62139 33.0056 8.27522V10.793C33.5652 10.7044 34.0441 10.3993 34.6284 10.3466C36.9196 10.1414 38.7622 11.8304 38.9394 14.0891C39.2703 18.298 38.6815 22.932 38.9383 27.187C38.8015 28.3567 37.209 28.4778 37.0407 27.4012L37.0329 14.2068C36.7671 11.5791 33.24 11.5679 33.0022 14.3133C32.7207 17.5612 33.2232 21.2061 33.0034 24.4965C32.7017 25.3791 31.3951 25.3657 31.1563 24.4461L31.0935 8.62064C30.5843 6.22513 27.2826 6.08382 26.566 8.43671L26.5032 24.039C26.3148 25.5799 24.6359 25.6315 24.4968 23.7216C24.046 17.504 24.8445 10.7459 24.5024 4.47111C23.9955 1.96456 20.5581 2.02961 20.1477 4.59335L20.0882 24.5616C19.6744 25.4924 18.3802 25.2692 18.2434 24.2689L18.2097 10.0932C17.4202 7.39484 13.7664 7.6898 13.4378 10.5261L13.4321 28.8704C13.4019 29.6319 12.563 30.0199 11.9282 29.5769C11.5794 29.3335 10.6363 27.8262 10.2381 27.3519C9 25.8737 5.70953 22.7582 3.74355 22.6494C2.57158 22.5844 1.83476 23.5904 2.03887 24.6995C2.15439 25.3264 4.05644 27.5066 4.5656 28.2143C7.23252 31.9208 9.00785 35.3089 11.28 39.178C14.7611 45.1051 23.1701 47.9077 29.6501 45.8733C30.4475 45.6233 31.5174 44.7563 32.1712 45.4763C33.3611 46.7874 30.8086 47.5287 29.8968 47.799C24.8378 49.2939 18.3589 48.0412 14.1084 44.9661C9.63813 41.7305 7.62616 35.9672 4.49831 31.415C3.36672 29.7687 1.48822 27.7578 0.577566 26.1619C-0.208603 24.7859 -0.0482289 23.1081 1.00373 21.9272C4.03401 18.5257 9.43514 23.5074 11.5234 25.9018V10.1784C11.5234 9.96868 11.8688 8.98288 11.9843 8.73727C13.0923 6.39896 16.0508 5.64755 18.2366 6.98886C18.3073 6.15335 18.1402 5.17541 18.2366 4.35896L18.2378 4.36008Z" fill="#57CC99"/>
<path id="Vector_2" d="M33.0965 28.9522C34.9895 28.7571 36.6841 29.4692 37.9862 30.8195C41.2396 27.1051 47.4325 29.1833 47.7813 34.1167C48.1413 39.2072 44.3462 43.2883 40.1316 45.4977C39.4789 45.8397 38.3047 46.4812 37.5936 46.3197C35.2508 45.7859 31.3032 42.5178 29.9608 40.5249C27.2748 36.538 27.1054 29.5702 33.0965 28.9522ZM33.2041 30.8509C31.1865 31.1234 29.9215 32.938 29.9877 34.904C30.0796 37.6505 31.809 40.1963 33.8501 41.8943C35.0389 42.8834 36.4766 43.7448 37.9021 44.3391C41.9271 42.8543 46.3985 38.7081 45.8748 34.0079C45.5271 30.8868 41.3742 29.707 39.3275 32.1608C38.9069 32.6644 38.6815 33.5829 37.8852 33.5033C37.089 33.4236 36.9252 32.4468 36.4239 31.9332C35.6344 31.1257 34.3211 30.6962 33.2041 30.8476V30.8509Z" fill="#57CC99"/>
</g>
</g>
<defs>
<clipPath id="clip0_4542_4735">
<rect width="48" height="48" fill="white" transform="translate(0 0.5)"/>
</clipPath>
</defs>
</svg>
