<svg width="48" height="49" viewBox="0 0 48 49" fill="none" xmlns="http://www.w3.org/2000/svg">
<g id="Layer_1" clip-path="url(#clip0_4542_4720)">
<g id="Group">
<path id="Vector" d="M0 5.54652C0.486429 3.00294 2.39357 1.03152 5.00036 0.661873C11.0721 0.908302 17.5511 0.23223 23.5768 0.627588C24.9707 0.718659 26.0946 1.18152 27.1543 2.07402C30.2486 5.56795 34.0489 8.72866 37.0982 12.2226C38.1611 13.4408 38.6839 14.5347 38.8039 16.1804C38.9936 18.7679 38.6229 21.5354 38.8575 24.1401C39.9546 24.7358 41.0732 25.3154 42.2282 25.7933C43.5889 26.3558 45.21 26.6751 46.4711 27.2151C48.2871 27.9929 47.9893 30.5247 47.8971 32.2101C47.6218 37.2083 45.0868 41.8872 41.1482 44.9119C40.3779 45.5033 36.5346 48.1851 35.8564 48.2772C35.3186 48.3501 34.2996 48.4679 33.7811 48.5001H4.91786C2.35929 47.9965 0.489643 46.1558 0 43.5854V5.54652ZM23.9464 2.98259C23.7107 2.96652 23.4954 2.8883 23.2554 2.87116C17.5607 2.45544 11.3614 3.19044 5.61321 2.87759C3.57107 3.11009 2.38179 4.40759 2.23929 6.4508L2.24571 42.889C2.23929 44.3912 3.87643 46.2565 5.39786 46.2565H31.4293C28.1379 44.0815 25.4036 41.2626 23.9711 37.5233C23.0936 35.2326 22.4636 31.5619 22.7979 29.1351C23.0904 27.0083 25.5643 26.8883 27.2089 26.2776C28.7346 25.7108 30.2839 25.0337 31.7154 24.2644C33.1371 23.4994 34.8246 21.8054 36.4543 22.7504V15.4851H29.3454C26.9561 15.4851 23.9464 12.8569 23.9464 10.4097V2.98259ZM34.7443 13.1333L26.1921 4.4783V9.98116C26.1921 11.1458 27.7307 13.1333 28.9179 13.1333H34.7443ZM25.1271 29.2722C24.7843 33.6329 25.8846 37.8394 28.8096 41.1297C30.6225 43.1687 33.0568 44.4662 35.2779 46.0026L35.4868 45.9929C37.7668 44.4137 40.1614 43.0819 42.0171 40.9712C44.3132 38.3579 45.5186 34.9272 45.6536 31.4633C45.6664 31.1387 45.6975 29.5176 45.6 29.3708C42.0118 28.3015 38.5714 26.8026 35.415 24.7937C34.2825 25.3154 33.2057 26.0762 32.0743 26.6526C29.91 27.754 27.4982 28.7204 25.1282 29.2722H25.1271Z" fill="#57CC99"/>
<path id="Vector_2" d="M7.88357 23.4159L26.1386 23.3901C27.7704 23.5305 27.7757 25.5984 26.1386 25.7419H8.07107C6.56785 25.6766 6.38678 23.6666 7.88357 23.4169V23.4159Z" fill="#57CC99"/>
<path id="Vector_3" d="M24.7661 16.909C25.5225 17.6665 24.9171 18.8665 23.8939 18.903H8.07106C6.43392 18.7605 6.43928 16.6915 8.07106 16.5522L24.2486 16.6251C24.4125 16.7055 24.6386 16.7815 24.7661 16.909Z" fill="#57CC99"/>
<path id="Vector_4" d="M7.8836 30.2547L19.2975 30.229C20.9047 30.3779 20.9775 32.3922 19.2975 32.5808C15.8143 32.9697 11.6293 32.2894 8.07217 32.5808C6.56895 32.5154 6.38788 30.5054 7.88467 30.2558L7.8836 30.2547Z" fill="#57CC99"/>
<path id="Vector_5" d="M7.8836 37.0926L19.2975 37.0669C20.9047 37.2158 20.9775 39.2301 19.2975 39.4187C15.8143 39.8076 11.6293 39.1272 8.07217 39.4187C6.56895 39.3533 6.38788 37.3433 7.88467 37.0937L7.8836 37.0926Z" fill="#57CC99"/>
<path id="Vector_6" d="M17.9239 10.0701C18.6803 10.8276 18.075 12.0276 17.0518 12.064C14.2253 11.7961 10.7185 12.4261 7.97462 12.0544C6.4564 11.8486 6.4339 9.89543 8.07212 9.71329C10.83 9.40579 14.1321 9.94686 16.95 9.70901C17.2564 9.71222 17.7096 9.85365 17.925 10.0701H17.9239Z" fill="#57CC99"/>
<path id="Vector_7" d="M38.5671 31.4248C39.5036 31.2887 40.1529 32.2337 39.7939 33.0866L34.68 38.1244C34.2407 38.3698 33.8507 38.2241 33.4682 37.968C33.0857 37.7119 31.4646 36.0769 31.1604 35.6805C30.1918 34.4205 31.4582 33.2033 32.6025 33.9191C32.9239 34.1205 34.0243 35.4962 34.2482 35.4566L38.0539 31.6669C38.1921 31.5458 38.3871 31.4516 38.5682 31.4248H38.5671Z" fill="#57CC99"/>
</g>
</g>
<defs>
<clipPath id="clip0_4542_4720">
<rect width="48" height="48" fill="white" transform="translate(0 0.5)"/>
</clipPath>
</defs>
</svg>
