<svg width="56" height="56" viewBox="0 0 56 56" fill="none" xmlns="http://www.w3.org/2000/svg">
<g id="Group 15">
<circle id="Ellipse 2" cx="28" cy="28" r="27.5" fill="white" stroke="#D5D5D5"/>
<path id="Arrow 2" d="M15.9393 36.9393C15.3536 37.5251 15.3536 38.4749 15.9393 39.0607C16.5251 39.6464 17.4749 39.6464 18.0607 39.0607L15.9393 36.9393ZM39.7132 16.7868C39.7132 15.9584 39.0416 15.2868 38.2132 15.2868L24.7132 15.2868C23.8848 15.2868 23.2132 15.9584 23.2132 16.7868C23.2132 17.6152 23.8848 18.2868 24.7132 18.2868H36.7132V30.2868C36.7132 31.1152 37.3848 31.7868 38.2132 31.7868C39.0416 31.7868 39.7132 31.1152 39.7132 30.2868L39.7132 16.7868ZM18.0607 39.0607L39.2739 17.8475L37.1525 15.7261L15.9393 36.9393L18.0607 39.0607Z" fill="#57CC99"/>
</g>
</svg>
