<svg width="69" height="70" viewBox="0 0 69 70" fill="none" xmlns="http://www.w3.org/2000/svg">
<g id="Icon">
<g id="Group">
<path id="Vector" d="M53.8452 8.83447C55.1029 9.40159 56.1082 10.1771 56.4268 11.6361L56.2238 29.9996C55.6976 30.8552 53.6092 30.225 53.6092 29.5561V11.9851C53.1774 11.8736 52.8149 11.8864 52.3619 11.8501C37.681 11.8501 25.447 11.8501 11.7448 11.8501C11.3909 11.7071 10.6617 12.007 10.6617 12.8553V58.6392L11.0156 59.0027H41.2205C43.064 59.0027 43.064 62.11 41.1066 62.11C28.8725 62.11 22.5147 62.1197 11.2555 62.11C9.45028 61.8701 8.36326 61.0191 7.82996 59.2475V11.5004C8.47417 10.0899 9.19389 9.32646 10.6617 8.83447H53.8452Z" fill="#57CC99"/>
<path id="Vector_2" d="M52.901 63.1229L52.6533 60.2243C48.9838 59.9892 46.3692 56.9888 46.7657 53.1862H51.9571C51.3625 57.1318 56.9645 56.8168 55.3741 53.1887C55.0059 52.3501 51.379 51.0777 50.3242 50.3773C47.955 48.8044 47.1456 47.0327 47.4736 44.0954C47.8016 41.158 50.4186 39.7256 53.0332 39.1415L53.137 36.7034C53.7199 36.7931 55.3198 36.4732 55.6313 36.9312L55.7681 39.3354C57.8825 39.7668 59.3432 41.0731 60.3366 43.0047L60.9266 44.9436V46.1554H55.7375C55.8531 44.5558 55.2301 43.3949 53.4981 43.727C52.5046 43.9184 52.4173 45.8815 52.9742 46.5723C53.7671 47.5587 57.4978 48.7801 58.9184 50.038C61.6227 52.4301 61.3702 57.6505 58.1775 59.4464C57.2973 59.9408 56.2708 60.0159 55.3693 60.44L55.2655 63.1205H52.9058L52.901 63.1229Z" fill="#57CC99"/>
<ellipse id="Ellipse 9" cx="19.0851" cy="22.4062" rx="1.46809" ry="1.5" fill="#57CC99"/>
<rect id="Rectangle 8" x="25.4468" y="20.9062" width="17.617" height="3" rx="1.5" fill="#57CC99"/>
<ellipse id="Ellipse 10" cx="19.0851" cy="34.4062" rx="1.46809" ry="1.5" fill="#57CC99"/>
<rect id="Rectangle 9" x="25.4468" y="32.9062" width="17.617" height="3" rx="1.5" fill="#57CC99"/>
<ellipse id="Ellipse 11" cx="19.0851" cy="47.4062" rx="1.46809" ry="1.5" fill="#57CC99"/>
<rect id="Rectangle 10" x="25.4468" y="45.9062" width="17.617" height="3" rx="1.5" fill="#57CC99"/>
</g>
</g>
</svg>
