<svg width="65" height="61" viewBox="0 0 65 61" fill="none" xmlns="http://www.w3.org/2000/svg">
<g id="Layer_1" clip-path="url(#clip0_4542_4626)">
<g id="Group">
<path id="Vector" d="M0 39.0248L6.00888 20.8476C7.8933 18.0469 10.9218 20.3553 13.3884 20.8387V2.71593C13.3884 1.74904 14.5021 0.413875 15.4803 0.260742L38.8135 0.279726L39.2843 0.565742L50.8426 12.1203C50.9679 12.2544 51.2818 12.8227 51.2818 12.9442V20.8375C53.7825 20.3363 56.8439 18.0191 58.7144 20.921L64.6145 39.0172C64.898 40.2853 64.2614 41.6104 63.1414 42.2292C62.2719 42.7101 56.6136 44.5654 55.6303 44.6958C54.7747 44.8097 54.0306 44.6515 53.3054 44.201C53.5522 47.1662 50.9565 49.1328 48.1255 48.6203C48.4317 51.2337 45.8133 53.3598 43.3277 52.789C43.4771 55.5037 41.213 57.5425 38.5262 57.2084C38.6996 58.6701 37.6277 60.0989 36.2887 60.5912C34.1588 61.3733 32.7097 59.9559 30.8885 59.1017C29.7103 61.4556 26.4097 61.4999 25.0758 59.2333C23.1762 61.1582 20.111 60.4874 19.0062 58.0867C16.2182 60.185 12.5088 58.3157 12.7619 54.8101C11.1698 54.919 9.64231 53.7623 9.18671 52.26C8.47419 49.9112 10.2561 48.1951 11.4938 46.4132L10.2966 44.835C10.027 44.6085 9.28922 44.7312 8.83868 44.6502C7.61235 44.43 2.69818 42.8342 1.61865 42.271C0.70998 41.7977 0.410042 41.1737 0.00379668 40.2866V39.0236L0 39.0248ZM37.5138 2.27298H15.8524C15.8043 2.27298 15.5461 2.59064 15.5057 2.68429L15.4095 21.2804C15.4917 21.7322 16.4308 21.8006 16.8636 22.1005C17.5495 22.5763 18.2051 23.7103 18.1924 24.5582C18.1848 25.0455 17.5305 26.5122 17.809 26.7122C17.9317 26.7995 19.1707 27.0197 19.3947 27.0286C20.659 27.0779 21.4361 26.2338 22.5257 25.7428C26.4793 23.9583 29.0168 24.9543 32.7793 26.53C35.8622 25.2441 38.0845 24.6671 41.3028 25.9554C43.0151 26.6413 43.5872 27.6272 45.6488 27.3918C46.1196 27.3386 46.6372 27.1033 47.1118 27.021C46.8131 25.6124 46.0905 24.605 46.8587 23.1699C47.4168 22.1271 48.3039 21.9056 49.2632 21.4057V14.0806L49.0734 13.8908H38.0845C37.958 13.8908 37.5163 13.4491 37.5163 13.3226V2.27298H37.5138ZM47.6193 11.8722L39.5349 3.78912V11.8722H47.6193ZM8.30334 21.4918C8.15148 21.5221 8.00973 21.6221 7.89077 21.7196L2.02237 39.7082C2.09197 40.0816 2.35141 40.4131 2.70957 40.5473C4.74838 40.97 7.11245 42.2571 9.08799 42.6304C9.66635 42.7392 10.2409 42.7519 10.4915 42.1267L16.1511 24.5658C16.1055 24.1646 15.9397 23.809 15.5373 23.6799C13.3694 23.218 10.9724 21.9132 8.84754 21.5247C8.64378 21.488 8.52735 21.4475 8.30461 21.4918H8.30334ZM55.9251 21.4956C54.9886 21.6297 50.0023 23.2484 49.1341 23.6799C48.7228 23.8849 48.5748 24.09 48.5203 24.5658L54.1812 42.1267C54.4394 42.8076 54.9633 42.7468 55.5834 42.6317C57.5767 42.2609 59.9952 40.9472 62.0517 40.5131C62.3846 40.3359 62.6529 39.9841 62.6541 39.5969L57.0287 22.103C56.83 21.6069 56.4453 21.4222 55.9251 21.4968V21.4956ZM30.1874 27.6601C27.7259 26.6881 26.1237 26.4173 23.6242 27.4728C22.689 27.8677 21.7854 28.6574 20.8691 28.8864C19.5846 29.2066 18.2987 28.9155 17.0471 28.5953L12.0203 43.7302C12.0722 44.0909 12.8341 44.9818 13.1682 45.1172C13.7566 45.3564 14.6501 45.1362 15.4373 45.3741C17.0762 45.8702 18.0444 47.58 17.952 49.2366C19.4226 49.4163 20.8855 50.1643 21.3475 51.6526C23.3698 49.9074 26.5894 50.5579 27.4108 53.1687C29.1876 51.9892 31.6694 52.8979 32.2743 54.9342C32.5717 55.934 32.3338 56.4921 32.1364 57.4627C33.2982 57.9196 34.608 59.3674 35.866 58.5296C36.8873 57.85 36.6949 56.5414 35.7344 55.8947C34.9662 55.3784 32.5869 54.4571 32.1377 53.9344C31.3783 53.051 32.2553 51.8956 33.3501 52.3436C34.8244 52.8106 37.4796 54.9671 38.8477 55.1809C40.5384 55.4442 41.8318 53.7433 41.0776 52.1942C40.5308 51.0704 37.5125 50.1655 36.4988 49.3201C35.9571 48.7291 36.4545 47.6635 37.205 47.6142C37.8162 47.5737 41.4408 49.7783 42.3102 50.2022C42.9683 50.5237 43.6024 50.973 44.3642 50.8667C46.1259 50.6211 46.8106 48.3836 45.4045 47.2345L39.4652 43.9529C38.5945 43.0683 39.7627 41.7559 40.7561 42.4102L48.6988 46.5916C50.6579 46.9396 52.0297 45.1577 50.8312 43.4505C50.1339 42.457 46.5144 40.3106 45.3033 39.6323C42.7722 38.2149 40.0778 37.0923 37.2771 36.3089C33.3045 37.3555 29.5028 39.2286 25.4542 39.9057C24.3051 39.7918 23.4534 39.1855 22.7396 38.3237C22.1334 37.5909 20.9387 35.6774 21.3158 34.7599C21.4361 34.4675 23.5382 32.4262 23.9318 32.0718C24.7582 31.3302 25.7757 30.5418 26.6856 29.9001C27.8208 29.099 29.0585 28.4637 30.1862 27.6563L30.1874 27.6601ZM51.7855 41.4243L47.6711 28.932C46.26 29.4053 44.4414 29.7268 43.0253 29.1573C41.6104 28.589 40.6258 27.6221 38.9362 27.3095C36.9 26.9324 33.9942 28.1435 32.1237 29.0256C28.9358 30.5279 25.6909 32.8856 23.4129 35.5521C23.9343 36.5532 24.4949 37.8694 25.8136 37.8808C29.1016 36.9898 32.2579 35.6483 35.523 34.6966C35.9305 34.5776 36.6228 34.303 36.9784 34.2524C37.7631 34.1398 40.4511 35.1775 41.3357 35.5192C45.0919 36.9734 48.5026 39.1299 51.7868 41.4231L51.7855 41.4243ZM11.5369 52.3689C12.2203 53.0599 13.3833 52.9055 14.0199 52.2221C14.2932 51.9285 15.8246 49.591 15.8866 49.2885C16.2384 47.5724 14.1705 46.5258 13.0087 47.6749C12.7164 47.9635 11.2458 50.2035 11.1217 50.587C10.9218 51.2046 11.0724 51.9006 11.5369 52.3689ZM17.8925 51.3185C17.69 51.3235 17.3129 51.4425 17.1319 51.545C16.7105 51.7804 15.0058 54.2255 14.864 54.7064C14.3527 56.4389 16.2321 57.6576 17.5622 56.5199C17.9317 56.2035 19.3416 54.1394 19.5124 53.6711C19.9364 52.5056 19.1695 51.283 17.8938 51.3185H17.8925ZM23.704 57.8007C23.952 57.5551 25.1973 55.7074 25.3656 55.3581C26.3629 53.2864 24.0406 51.7563 22.6118 53.3623C22.1574 53.8736 20.7375 56.0339 20.7375 56.6427C20.7375 58.1588 22.6029 58.8865 23.7027 57.8007H23.704ZM30.0229 54.9772C29.5901 54.5747 28.9459 54.6089 28.4827 54.938C28.222 55.1227 26.8299 57.1324 26.7818 57.4083C26.5477 58.7346 28.0436 59.4434 29.0294 58.2626C29.6546 57.5159 30.9392 55.8289 30.0229 54.9772Z" fill="#57CC99"/>
<path id="Vector_2" d="M29.5559 16.0398C25.7263 15.2716 24.8759 9.98663 28.2549 7.98198C28.5283 7.81999 29.5002 7.49221 29.5394 7.43526C29.6306 7.30111 29.4635 6.75692 29.6951 6.39117C30.3355 5.37873 31.9503 6.24437 31.5934 7.43653C33.0893 7.83771 34.303 8.88306 34.77 10.3853C35.0712 11.3547 35.2421 13.0708 33.6892 12.7316C32.8451 12.5469 33.0716 11.7863 32.9109 11.2332C32.7008 10.5131 32.2731 9.90564 31.577 9.59937V14.2085C31.8352 14.4794 32.2326 14.4617 32.5477 14.6274C36.2482 16.5777 35.6192 21.9044 31.5897 22.8713C31.8352 24.8975 29.2876 24.9418 29.5445 22.8713C27.6424 22.6397 25.6542 20.0516 26.2186 18.1913C26.3426 17.7825 26.8868 17.5268 27.2855 17.6028C28.6282 17.8597 27.8474 20.4174 29.5559 20.7123V16.0398ZM29.5559 13.8921V9.5981C27.774 10.4068 27.6221 13.1594 29.5559 13.8921ZM31.577 20.7123C33.5108 19.9795 33.3589 17.2269 31.577 16.4182V20.7123Z" fill="#57CC99"/>
<path id="Vector_3" d="M12.7138 24.5377C13.8718 24.4745 14.1414 26.3083 13.0707 26.5183C11.4229 26.8411 11.3483 24.6124 12.7138 24.5377Z" fill="#57CC99"/>
<path id="Vector_4" d="M51.7576 24.3972C52.9663 24.2428 53.3042 26.1146 52.2019 26.3677C50.6427 26.7259 50.4275 24.5681 51.7576 24.3972Z" fill="#57CC99"/>
</g>
</g>
<defs>
<clipPath id="clip0_4542_4626">
<rect width="64.7967" height="61" fill="white"/>
</clipPath>
</defs>
</svg>
