<svg width="122" height="60" viewBox="0 0 122 60" fill="none" xmlns="http://www.w3.org/2000/svg">
<g id="logoenvr 1" clip-path="url(#clip0_4542_4520)">
<path id="Vector" d="M27.0022 47.3411L26.6004 60.0001H0V59.4871H0.401723C1.68233 59.4871 2.67061 59.3777 2.67061 56.8165V26.5571C2.67061 23.9959 1.6465 23.8865 0.328168 23.8865H0V23.3735H25.6857L26.2346 34.4973L25.7216 34.5331C25.4292 28.5695 23.745 23.8865 14.5261 23.8865H9.25659C8.04954 23.8865 7.13482 24.143 7.13482 26.5571V41.4492H17.5268C21.4422 41.4492 22.2098 39.3632 22.2098 36.7662H22.6851V46.6093H22.2098C22.2098 44.0481 21.4422 41.9263 17.5268 41.9263H7.13482V56.8184C7.13482 59.306 8.12309 59.489 9.36598 59.489H15.4767C24.6974 59.489 26.2346 53.2689 26.5269 47.3053L27.0022 47.3411Z" fill="black"/>
<path id="Vector_2" d="M57.8839 23.3755V23.8885H57.4822C56.2016 23.8885 55.2133 23.9979 55.2133 26.5591V60.002H52.7992L31.4683 25.9744V56.8184C31.4683 59.3796 32.4566 59.489 33.773 59.489H34.1389V60.002H28.2847V59.489H28.6864C29.9671 59.489 30.9553 59.3796 30.9553 56.8184V26.5591C30.9553 23.9979 29.9312 23.8885 28.6129 23.8885H28.2828V23.3755H35.1253L54.7003 54.6231V26.5591C54.7003 23.9979 53.7121 23.8885 52.3956 23.8885H52.0297V23.3755H57.8839Z" fill="black"/>
<path id="Vector_3" d="M62.0539 25.9009C61.3956 24.2544 60.4432 23.8885 59.1626 23.8885V23.3755H69.0057V23.8885C67.8722 23.8885 66.8104 24.145 66.8104 25.4256C66.8104 25.7556 66.884 26.1574 67.0669 26.6326L77.3118 54.7702L88.179 26.5968C88.362 26.0838 88.4355 25.6821 88.4355 25.352C88.4355 24.145 87.4473 23.8885 86.3496 23.8885V23.3755H92.2038V23.8885C90.7403 23.8885 89.752 24.145 88.875 26.1574L75.8501 60.002H74.4601L62.0558 25.9009H62.0539Z" fill="black"/>
<path id="Vector_4" d="M121.439 57.8426C121.439 57.8426 120.964 60.0021 117.561 60.0021C107.682 60.0021 111.817 40.9401 102.999 40.9401H100.657V56.8204C100.657 59.3816 101.645 59.491 102.926 59.491H103.328V60.004H93.4844V59.491H93.8861C95.2026 59.491 96.1909 59.3816 96.1909 56.8204V26.561C96.1909 23.9998 95.1668 23.8904 93.8126 23.8904H93.4825V23.3774H110.532C116.679 23.3774 119.789 27.3287 119.789 32.1588C119.789 36.9889 116.679 40.9401 110.532 40.9401H106.655C115.692 43.8672 115.179 58.6498 119.644 58.6498C120.851 58.6498 121.107 57.588 121.107 57.588L121.437 57.8445L121.439 57.8426ZM100.655 40.4629H106.545C112.435 40.4629 115.326 36.7305 115.326 32.1569C115.326 27.5833 112.435 23.8886 106.545 23.8886H102.777C101.57 23.8886 100.655 24.1073 100.655 26.5592V40.4629Z" fill="black"/>
<g id="Group">
<path id="Vector_5" d="M64.6697 29.5106C76.099 23.0566 75.4597 11.5632 64.6697 0C53.8798 11.5632 53.2405 23.0566 64.6697 29.5106Z" fill="#ABE063"/>
<path id="Vector_6" d="M64.6716 29.5089C67.9326 17.7854 59.9792 10.6694 45.3248 10.1621C45.8322 24.8165 52.9481 32.7698 64.6716 29.5089Z" fill="#D1E063"/>
<path id="Vector_7" d="M56.9729 12.5176C55.0549 19.3563 57.4577 25.4368 64.6698 29.5087C64.6698 29.5087 64.6717 29.5087 64.6736 29.5087C66.9142 21.4535 63.8607 15.5729 56.9748 12.5176H56.9729Z" fill="#57CC99"/>
<path id="Vector_8" d="M67.3837 35.3269C73.1832 36.2661 76.1725 32.0697 75.6331 25.0122C68.6285 26.0382 65.1921 29.8763 67.3837 35.3269Z" fill="#8BD1BF"/>
</g>
</g>
<defs>
<clipPath id="clip0_4542_4520">
<rect width="121.439" height="60" fill="white"/>
</clipPath>
</defs>
</svg>
