<svg width="222" height="120" viewBox="0 0 222 120" fill="none" xmlns="http://www.w3.org/2000/svg">
<g id="Website (puro.earth) 1" clip-path="url(#clip0_4542_4658)">
<g id="Group">
<path id="Vector" d="M212.577 32.017C217.392 32.017 221.296 28.1138 221.296 23.2988C221.296 18.4839 217.392 14.5806 212.577 14.5806C207.762 14.5806 203.859 18.4839 203.859 23.2988C203.859 28.1138 207.762 32.017 212.577 32.017Z" fill="#0331C0"/>
<g id="Group_2">
<path id="Vector_2" d="M118.781 75.0068C118.781 75.0068 117.879 75.0068 116.977 75.1571C115.775 75.3074 114.572 75.608 113.37 76.2093C111.867 76.9609 110.664 77.8627 109.462 79.0652C107.959 80.7187 106.906 82.6728 106.606 84.9275C106.455 86.13 106.455 88.3847 106.455 88.3847V119.199H117.729V84.6269H129.604V74.8564H118.781V75.0068Z" fill="#0331C0"/>
<path id="Vector_3" d="M0.333374 96.9529C0.333374 84.0259 9.80319 74.4058 23.3315 74.4058C36.8598 74.4058 46.1793 83.8756 46.1793 96.9529V100.56H11.156C12.5088 106.723 17.3189 110.03 23.3315 110.03C27.9912 110.03 31.2982 108.677 33.4026 105.972H44.3755C41.2189 114.089 33.4026 119.35 23.3315 119.35C9.80319 119.35 0.333374 109.88 0.333374 96.9529ZM35.3566 92.2932C33.7032 86.5812 29.0434 83.7253 23.4818 83.7253C17.6195 83.7253 13.1101 86.7315 11.607 92.2932H35.3566Z" fill="#0331C0"/>
<path id="Vector_4" d="M138.472 101.913V61.4785H148.844V75.0068H163.274V84.3263H148.844V101.763C148.844 107.475 151.85 109.729 156.059 109.729C160.268 109.729 163.274 107.625 163.274 101.763V100.711H173.646V101.763C173.646 113.638 166.581 119.35 156.21 119.35C145.537 119.35 138.472 113.638 138.472 101.913Z" fill="#0331C0"/>
<path id="Vector_5" d="M219.642 85.8295C218.59 82.8232 216.636 80.2678 213.93 78.4641C211.225 76.6603 208.068 75.7584 204.911 75.4578C201.905 75.1571 198.899 75.1571 195.893 75.4578C194.389 75.6081 192.886 76.059 191.533 76.51V61.4785H180.26V106.423C180.26 113.187 180.26 119.5 180.26 119.5H191.533V95.4496V85.8295H209.721V119.5H220.845C220.845 119.5 220.845 102.514 220.845 94.0968C220.845 91.2408 220.544 88.5351 219.642 85.8295Z" fill="#0331C0"/>
<path id="Vector_6" d="M97.4365 96.8025C97.4365 84.3264 87.2152 74.105 74.7391 74.105C62.2629 74.105 52.0416 84.3264 52.0416 96.8025C52.0416 109.279 62.2629 119.5 74.7391 119.5C79.6994 119.5 84.2089 117.846 87.9667 115.141V119.5H97.4365V96.8025ZM74.7391 108.677C68.1252 108.677 62.8642 103.416 62.8642 96.8025C62.8642 90.1886 68.1252 84.9276 74.7391 84.9276C81.3529 84.9276 86.6139 90.1886 86.6139 96.8025C86.6139 103.416 81.3529 108.677 74.7391 108.677Z" fill="#0331C0"/>
</g>
<g id="Group_3">
<path id="Vector_7" d="M115.925 1.05225C115.925 1.05225 115.023 1.05225 114.121 1.20256C112.919 1.35288 111.716 1.6535 110.514 2.25476C109.011 3.00633 107.808 3.90822 106.606 5.11074C105.103 6.7642 104.05 8.71828 103.75 10.973C103.599 12.1755 103.599 14.4302 103.599 14.4302V45.2447H114.723V10.8227H126.598V1.05225H115.925Z" fill="#0331C0"/>
<path id="Vector_8" d="M94.7309 1.05225H83.4573V34.7227H65.4195V1.05225H54.2963C54.2963 1.05225 54.2963 18.0378 54.2963 26.4554C54.2963 29.3114 54.5969 32.1673 55.4988 34.873C56.551 37.8793 58.5051 40.4346 61.2107 42.2384C63.9164 44.0422 67.073 44.9441 70.2296 45.2447C73.2359 45.5453 76.2422 45.5453 79.2485 45.2447C82.2548 44.7938 85.261 43.8919 87.8164 42.2384C90.5221 40.4346 92.4761 38.0296 93.5283 34.873C94.4302 32.1673 94.7309 29.3114 94.7309 26.4554C94.7309 18.0378 94.7309 1.05225 94.7309 1.05225Z" fill="#0331C0"/>
<path id="Vector_9" d="M45.1271 19.3906C44.8265 16.9855 44.0749 14.8811 43.0227 12.6264C41.6698 9.77043 39.5654 7.3654 37.1604 5.26099C34.4548 3.00628 31.4485 1.50313 28.1416 0.75156C25.4359 0.150303 22.5799 -0.150326 19.8743 0.300617C17.1686 0.450931 14.7636 1.35282 12.3585 2.70565C12.0579 2.85596 11.607 3.15659 11.3063 3.45722C11.0057 3.60754 10.7051 3.75785 10.4044 4.05848V0.901875H0.333374V63.2824H11.4566V41.6371C11.4566 41.6371 14.012 43.7415 15.9661 44.3428C19.4233 45.395 22.8805 45.5453 26.4881 44.944C28.8931 44.4931 31.2982 43.7415 33.4026 42.539C36.5592 40.7352 39.2648 38.3302 41.3692 35.4742C43.173 32.9189 44.5258 29.9126 44.9768 26.756C45.4277 24.3509 45.4277 21.7956 45.1271 19.3906ZM33.4026 27.2069C33.2522 27.5075 33.2522 27.6579 33.1019 27.8082C32.9516 28.1088 32.8013 28.4094 32.651 28.5597C32.651 28.7101 32.5007 28.8604 32.5007 28.8604C31.8994 29.7623 31.2982 30.5138 30.5466 31.2654L30.3963 31.4157C29.9453 31.7163 29.6447 32.1673 29.1938 32.4679C28.7428 32.7685 28.4422 32.9189 27.9912 33.2195C27.8409 33.3698 27.6906 33.3698 27.39 33.5201C27.0893 33.6704 26.7887 33.8207 26.4881 33.8207C26.1875 33.9711 26.0371 33.9711 25.7365 34.1214C25.4359 34.2717 24.9849 34.2717 24.6843 34.422C24.534 34.422 24.3837 34.422 24.2334 34.422C23.6321 34.422 23.1812 34.5723 22.5799 34.5723C21.9787 34.5723 21.3774 34.5723 20.9265 34.422C17.3189 33.8207 14.3126 31.8667 12.5088 28.8604C12.5088 28.8604 12.5088 28.8604 12.5088 28.7101C12.3585 28.4094 12.0579 27.9585 11.9076 27.6579C11.9076 27.5075 11.7573 27.5075 11.7573 27.3572C11.156 26.0044 10.8554 24.3509 10.8554 22.8478C10.8554 21.3446 10.8554 19.5409 11.4566 18.0377V17.8874C11.607 17.5868 11.7573 17.2862 11.9076 16.9855L12.0579 16.8352C12.2082 16.6849 12.3585 16.3843 12.5088 16.234C14.012 13.8289 16.2667 12.1755 18.9724 11.2736C19.1227 11.2736 19.273 11.2736 19.4233 11.1233C19.7239 10.9729 20.0246 10.9729 20.3252 10.9729C21.0768 10.8226 21.8283 10.6723 22.5799 10.6723C23.3315 10.6723 24.0831 10.8226 24.8346 10.9729H24.9849C25.4359 11.1233 25.8868 11.1233 26.1875 11.2736C26.6384 11.4239 26.939 11.5742 27.39 11.7245C27.39 11.7245 27.5403 11.7245 27.5403 11.8748C29.4944 12.7767 31.1478 14.2799 32.3504 16.0836C32.8013 16.6849 33.1019 17.2862 33.4026 17.8874V18.0377C34.0038 19.3906 34.3044 21.044 34.3044 22.5472C34.3044 24.0503 34.0038 25.8541 33.4026 27.2069Z" fill="#0331C0"/>
<path id="Vector_10" d="M155.007 45.2447C142.531 45.2447 132.31 35.0233 132.31 22.5472C132.31 10.0711 142.531 0 155.007 0C167.483 0 177.704 10.2214 177.704 22.6975C177.704 35.1736 167.483 45.2447 155.007 45.2447ZM155.007 10.8226C148.393 10.8226 143.132 16.0836 143.132 22.6975C143.132 29.3113 148.393 34.5723 155.007 34.5723C161.621 34.5723 166.882 29.3113 166.882 22.6975C166.882 16.0836 161.621 10.8226 155.007 10.8226Z" fill="#0331C0"/>
</g>
</g>
</g>
<defs>
<clipPath id="clip0_4542_4658">
<rect width="220.962" height="119.5" fill="white" transform="translate(0.333374)"/>
</clipPath>
</defs>
</svg>
