<svg width="61" height="72" viewBox="0 0 61 72" fill="none" xmlns="http://www.w3.org/2000/svg">
<g id="Icon">
<g id="Group">
<path id="Vector" d="M0.865946 71.3637C0.00774149 71.1105 0.299837 69.6973 0.935493 69.6973H4.75221V26.3851C1.37112 25.2829 0.366771 23.5573 0.128421 20.9021C-0.0516244 18.8964 0.010327 16.1432 0.010172 12.9445C1.53046 9.36288 2.28469 4.73391 3.87731 1.28719C3.99693 1.02986 4.06787 0.790624 4.33771 0.63623H56.7911L57.2167 1.18287L60.9625 13.5385C60.8993 15.8904 60.9623 18.3799 60.8285 20.9021C60.4481 23.3458 59.3499 25.4234 56.3766 26.3851V69.6973H60.1933C60.8276 69.6973 61.1211 71.1105 60.2629 71.3637H0.865946ZM2.115 12.7818H59.0138L55.7298 2.22467L5.50887 2.22189L2.115 12.7818ZM11.967 14.4468H1.83682V20.9021C1.83682 23.0859 4.7077 25.0777 6.75793 25.143C8.93195 25.2126 11.9684 23.2138 11.9684 20.9021V14.4468H11.967ZM23.7634 14.4468H13.6333V20.9021C13.6333 23.2402 16.8213 25.2279 18.9814 25.1417C20.9872 25.0624 23.7634 23.008 23.7634 20.9021V14.4468ZM35.699 14.4468H25.4298V20.9021C25.4298 23.2402 28.6178 25.2279 30.7779 25.1417C32.7892 25.0624 35.699 23.0566 35.699 20.9021V14.4468ZM47.4941 14.4468H37.364V20.9021C37.364 22.8188 39.9302 24.9177 41.7496 25.1208C44.0488 25.3781 47.4941 23.3919 47.4941 20.9021V14.4468ZM59.2906 14.4468H49.1605V20.9021C49.1605 23.2083 52.2094 25.2112 54.3709 25.143C56.4197 25.0777 59.292 23.0859 59.292 20.9021V14.4468H59.2906ZM6.41715 26.8024V69.6987H54.7117V26.8024C52.0981 26.9624 49.7669 25.6591 48.3954 23.4711C47.8001 23.9009 47.508 24.563 46.9419 25.0693C43.7414 27.9235 38.7424 27.1585 36.6003 23.4698C36.0064 23.9023 35.7129 24.563 35.1454 25.0693C32.5402 27.3936 28.4829 27.3727 25.9124 25.0012C25.6092 24.7216 24.7427 23.4684 24.5299 23.4698C22.4003 27.1543 17.3819 27.9221 14.1883 25.0693C13.6222 24.563 13.3287 23.9023 12.7348 23.4711C11.3689 25.6646 9.04184 26.9749 6.41854 26.8024H6.41715Z" fill="black"/>
<path id="Vector_2" d="M9.70698 33.0781L51.0399 33.0419C51.4544 33.028 51.8772 33.1754 52.0135 33.5955L52.0817 57.0021C52.0956 57.4166 51.9481 57.8394 51.5281 57.9757L10.0881 58.0439C9.6736 58.0578 9.25076 57.9103 9.11445 57.4903L9.04629 34.0837C9.03099 33.608 9.2132 33.1921 9.70698 33.0781ZM50.4084 34.7152H10.7182V56.3706H20.1557C20.63 53.1005 22.6315 50.2978 25.7736 49.1489C27.8113 48.4033 32.1761 48.3491 34.2875 48.829C37.9512 49.6635 40.4577 52.6944 40.9737 56.3706H50.4112V34.7152H50.4084ZM39.1669 56.3706C38.8178 53.7668 37.1486 51.5705 34.6589 50.6761C33.0746 50.1072 30.1258 50.135 28.4053 50.2561C25.0392 50.4925 22.3839 53.0393 21.9583 56.3706H39.1669Z" fill="black"/>
<path id="Vector_3" d="M29.8438 37.3886C36.6482 36.465 37.8375 46.8664 31.1805 47.6105C24.5193 48.3547 23.3384 38.2718 29.8438 37.3886ZM29.9829 39.0549C25.7475 39.653 26.3414 46.4574 31.0428 45.9428C35.4367 45.4615 34.8303 38.3692 29.9829 39.0549Z" fill="black"/>
<rect id="Rectangle 32" x="10.2051" y="6.31445" width="40.8006" height="1.53002" rx="0.765012" fill="black"/>
</g>
</g>
</svg>
