<svg width="28" height="29" viewBox="0 0 28 29" fill="none" xmlns="http://www.w3.org/2000/svg">
<g id="Group">
<circle id="Ellipse" cx="14" cy="14.2155" r="13.5" stroke="#D4D4D8"/>
<g id="Group_2">
<path id="Vector" d="M19.435 20.1448V15.9168C19.435 13.6515 18.2259 12.5974 16.6131 12.5974C15.3117 12.5974 14.7289 13.3133 14.4044 13.8155V12.7704H11.9531C11.9855 13.4628 11.9531 20.1448 11.9531 20.1448H14.4044V16.0263C14.4044 15.8065 14.4202 15.5861 14.485 15.429C14.662 14.9888 15.0651 14.5327 15.7423 14.5327C16.6296 14.5327 16.9844 15.2085 16.9844 16.1999V20.1455L19.435 20.1448ZM9.3703 11.7638C10.2246 11.7638 10.7571 11.1968 10.7571 10.4893C10.7413 9.76592 10.2246 9.21545 9.38614 9.21545C8.54771 9.21545 8 9.76592 8 10.4893C8 11.1975 8.53186 11.7638 9.35514 11.7638H9.3703ZM10.5959 20.1448V12.7704H8.14537V20.1448H10.5959Z" fill="#57CC99"/>
</g>
</g>
</svg>
