<svg width="28" height="29" viewBox="0 0 28 29" fill="none" xmlns="http://www.w3.org/2000/svg">
<g id="Group">
<circle id="Ellipse" cx="14" cy="14.2155" r="13.5" stroke="#D4D4D8"/>
<g id="Group_2">
<path id="Vector" d="M14.0008 8.66266C15.8095 8.66266 16.0237 8.66944 16.7382 8.70202C17.1678 8.70727 17.5933 8.78616 17.9962 8.93524C18.2884 9.04793 18.5538 9.22056 18.7753 9.44202C18.9967 9.66347 19.1694 9.92884 19.282 10.221C19.4311 10.624 19.51 11.0495 19.5153 11.4791C19.5475 12.1936 19.5546 12.4078 19.5546 14.2165C19.5546 16.0252 19.5479 16.2394 19.5153 16.954C19.51 17.3836 19.4311 17.8091 19.282 18.212C19.1694 18.5042 18.9967 18.7696 18.7753 18.991C18.5538 19.2125 18.2884 19.3851 17.9962 19.4978C17.5933 19.6469 17.1678 19.7258 16.7382 19.731C16.024 19.7633 15.8098 19.7704 14.0008 19.7704C12.1917 19.7704 11.9775 19.7636 11.2633 19.731C10.8337 19.7258 10.4082 19.6469 10.0053 19.4978C9.71307 19.3851 9.44769 19.2125 9.22624 18.991C9.00479 18.7696 8.83216 18.5042 8.71947 18.212C8.57038 17.8091 8.4915 17.3836 8.48624 16.954C8.45398 16.2394 8.44689 16.0252 8.44689 14.2165C8.44689 12.4078 8.45366 12.1936 8.48624 11.4791C8.4915 11.0495 8.57038 10.624 8.71947 10.221C8.83216 9.92884 9.00479 9.66347 9.22624 9.44202C9.44769 9.22056 9.71307 9.04793 10.0053 8.93524C10.4082 8.78616 10.8337 8.70727 11.2633 8.70202C11.9779 8.66976 12.192 8.66266 14.0008 8.66266ZM14.0008 7.44202C12.162 7.44202 11.9304 7.44976 11.2079 7.48266C10.6456 7.49384 10.0893 7.6003 9.56269 7.7975C9.11092 7.96772 8.70172 8.23446 8.36366 8.57911C8.01869 8.9173 7.75172 9.32673 7.5814 9.77879C7.3842 10.3054 7.27775 10.8617 7.26656 11.424C7.2343 12.1459 7.22656 12.3775 7.22656 14.2162C7.22656 16.0549 7.2343 16.2865 7.26721 17.0091C7.27839 17.5714 7.38485 18.1276 7.58205 18.6543C7.75218 19.1063 8.01892 19.5157 8.36366 19.854C8.70191 20.1987 9.11133 20.4654 9.56334 20.6356C10.09 20.8328 10.6463 20.9392 11.2085 20.9504C11.9311 20.9827 12.1617 20.991 14.0014 20.991C15.8411 20.991 16.0717 20.9833 16.7943 20.9504C17.3565 20.9392 17.9128 20.8328 18.4395 20.6356C18.8893 20.4612 19.2978 20.1948 19.6389 19.8536C19.98 19.5123 20.246 19.1036 20.4201 18.6536C20.6173 18.127 20.7238 17.5707 20.735 17.0085C20.7672 16.2865 20.775 16.0549 20.775 14.2162C20.775 12.3775 20.7672 12.1459 20.7343 11.4233C20.7231 10.8611 20.6167 10.3048 20.4195 9.77815C20.2493 9.32614 19.9826 8.91672 19.6379 8.57847C19.2996 8.23373 18.8902 7.96699 18.4382 7.79686C17.9115 7.59966 17.3553 7.4932 16.793 7.48202C16.0711 7.44976 15.8395 7.44202 14.0008 7.44202Z" fill="#57CC99"/>
<path id="Vector_2" d="M14.0021 10.7389C13.3141 10.7389 12.6416 10.9429 12.0695 11.3252C11.4974 11.7074 11.0515 12.2507 10.7882 12.8864C10.5249 13.522 10.4561 14.2215 10.5903 14.8963C10.7245 15.5711 11.0558 16.1909 11.5423 16.6774C12.0288 17.1639 12.6487 17.4952 13.3235 17.6295C13.9983 17.7637 14.6977 17.6948 15.3334 17.4315C15.969 17.1682 16.5123 16.7223 16.8946 16.1503C17.2768 15.5782 17.4809 14.9056 17.4809 14.2176C17.4809 13.295 17.1144 12.4102 16.462 11.7578C15.8096 11.1054 14.9248 10.7389 14.0021 10.7389ZM14.0021 16.4757C13.5555 16.4757 13.119 16.3432 12.7476 16.0951C12.3763 15.847 12.0869 15.4943 11.916 15.0817C11.7451 14.6691 11.7003 14.2151 11.7875 13.7771C11.8746 13.3391 12.0897 12.9367 12.4055 12.6209C12.7213 12.3051 13.1236 12.0901 13.5616 12.0029C13.9996 11.9158 14.4537 11.9605 14.8663 12.1314C15.2789 12.3023 15.6315 12.5918 15.8797 12.9631C16.1278 13.3344 16.2602 13.771 16.2602 14.2176C16.2602 14.8165 16.0223 15.3908 15.5988 15.8143C15.1754 16.2378 14.601 16.4757 14.0021 16.4757Z" fill="#57CC99"/>
<path id="Vector_3" d="M17.6176 11.4135C18.0665 11.4135 18.4305 11.0496 18.4305 10.6006C18.4305 10.1517 18.0665 9.78772 17.6176 9.78772C17.1686 9.78772 16.8047 10.1517 16.8047 10.6006C16.8047 11.0496 17.1686 11.4135 17.6176 11.4135Z" fill="#57CC99"/>
</g>
</g>
</svg>
