<svg width="28" height="29" viewBox="0 0 28 29" fill="none" xmlns="http://www.w3.org/2000/svg">
<g id="Group">
<circle id="Ellipse" cx="14" cy="14.2155" r="13.5" stroke="#D4D4D8"/>
<path id="Vector" d="M20.2071 11.1986C19.7881 11.3848 19.3458 11.5012 18.8802 11.571C19.3458 11.2917 19.7183 10.8494 19.8812 10.314C19.4389 10.57 18.9501 10.7563 18.4146 10.8727C17.9956 10.4303 17.3904 10.151 16.7386 10.151C15.4815 10.151 14.4572 11.1753 14.4572 12.4323C14.4572 12.6186 14.4805 12.7815 14.5271 12.9445C12.6415 12.8514 10.9421 11.9435 9.80141 10.5467C9.61518 10.8959 9.49878 11.2684 9.49878 11.6874C9.49878 12.4789 9.89453 13.1773 10.5231 13.5963C10.1506 13.573 9.80141 13.4799 9.4755 13.3169V13.3402C9.4755 14.4576 10.267 15.3888 11.3145 15.5983C11.1283 15.6448 10.9188 15.6681 10.7093 15.6681C10.5696 15.6681 10.4067 15.6448 10.267 15.6216C10.5696 16.5295 11.4077 17.2045 12.4087 17.2045C11.6172 17.8098 10.6395 18.1823 9.56862 18.1823C9.38239 18.1823 9.19616 18.1823 9.0332 18.159C10.0575 18.8108 11.2447 19.1833 12.5483 19.1833C16.7618 19.1833 19.0665 15.6914 19.0665 12.6651C19.0665 12.572 19.0665 12.4556 19.0665 12.3625C19.5088 12.0599 19.9045 11.6641 20.2071 11.1986Z" fill="#57CC99"/>
</g>
</svg>
