<svg width="36" height="36" viewBox="0 0 36 36" fill="none" xmlns="http://www.w3.org/2000/svg">
<g id="Text-link--analysis">
<g id="Vector">
<path d="M18 11.25H9V13.5H18V11.25Z" fill="#57CC99"/>
<path d="M22.5 6.75H9V9H22.5V6.75Z" fill="#57CC99"/>
<path d="M22.5 2.25H9V4.5H22.5V2.25Z" fill="#57CC99"/>
<path d="M5.29999 31.5L11.6351 20.2544L19.9984 27.5556C20.2512 27.7805 20.5515 27.9455 20.8769 28.0383C21.2023 28.1311 21.5444 28.1493 21.8778 28.0915C22.2111 28.0338 22.5272 27.9017 22.8025 27.7049C23.0777 27.5081 23.305 27.2518 23.4675 26.955L31.3095 15.2512L29.4396 13.9988L21.5646 25.7519L21.4858 25.8684L13.122 18.5663C12.8692 18.3426 12.5693 18.1785 12.2446 18.0862C11.9199 17.9939 11.5785 17.9758 11.2458 18.0331C10.9131 18.0904 10.5976 18.2218 10.3225 18.4174C10.0473 18.6131 9.81969 18.868 9.65632 19.1635L4.5 28.3304V2.25H2.25V31.5C2.25068 32.0965 2.48796 32.6684 2.90977 33.0902C3.33157 33.512 3.90347 33.7493 4.5 33.75H33.75V31.5H5.29999Z" fill="#57CC99"/>
</g>
</g>
</svg>
