<svg width="40" height="40" viewBox="0 0 40 40" fill="none" xmlns="http://www.w3.org/2000/svg">
<mask id="path-1-inside-1_1207_2672" fill="white">
<path d="M0 20C0 8.95431 8.95431 0 20 0C31.0457 0 40 8.95431 40 20C40 31.0457 31.0457 40 20 40C8.95431 40 0 31.0457 0 20Z"/>
</mask>
<path d="M0 20C0 8.95431 8.95431 0 20 0C31.0457 0 40 8.95431 40 20C40 31.0457 31.0457 40 20 40C8.95431 40 0 31.0457 0 20Z" fill="#F5F5F5"/>
<path d="M20 36C11.1634 36 4 28.8366 4 20H-4C-4 33.2548 6.74517 44 20 44V36ZM36 20C36 28.8366 28.8366 36 20 36V44C33.2548 44 44 33.2548 44 20H36ZM20 4C28.8366 4 36 11.1634 36 20H44C44 6.74517 33.2548 -4 20 -4V4ZM20 -4C6.74517 -4 -4 6.74517 -4 20H4C4 11.1634 11.1634 4 20 4V-4Z" fill="#FBFBFB" mask="url(#path-1-inside-1_1207_2672)"/>
<path d="M25 14H23V13H22V14H18V13H17V14H15C14.45 14 14 14.45 14 15V25C14 25.55 14.45 26 15 26H25C25.55 26 26 25.55 26 25V15C26 14.45 25.55 14 25 14ZM25 25H15V18H25V25ZM25 17H15V15H17V16H18V15H22V16H23V15H25V17Z" fill="#808080"/>
</svg>
