<svg width="16" height="16" viewBox="0 0 16 16" fill="none" xmlns="http://www.w3.org/2000/svg">
<g clip-path="url(#clip0_1458_555)">
<path d="M15 6.50037H14V7.50037H15V6.50037Z" fill="#161616"/>
<path d="M12.5961 1.69175L11.889 2.39885L12.5961 3.10595L13.3032 2.39885L12.5961 1.69175Z" fill="#161616"/>
<path d="M8.5 0.000366211H7.5V1.00037H8.5V0.000366211Z" fill="#161616"/>
<path d="M2.6967 2.40959L3.4038 3.11669L4.1109 2.40959L3.4038 1.70249L2.6967 2.40959Z" fill="#161616"/>
<path d="M2 6.50037H1V7.50037H2V6.50037Z" fill="#161616"/>
<path d="M10 6.50037H8.5V5.00037H7.5V6.50037H6V7.50037H7.5V9.00037H8.5V7.50037H10V6.50037Z" fill="#161616"/>
<path d="M9.5 15.0004H6.5V16.0004H9.5V15.0004Z" fill="#161616"/>
<path d="M10.5 13.0004H5.5V14.0004H10.5V13.0004Z" fill="#161616"/>
<path d="M8 2.00037C5.25 2.00037 3 4.25037 3 7.00037C3 9.20037 4 10.1504 4.75 10.8004C5.25 11.2504 5.5 11.5504 5.5 12.0004H6.5C6.5 11.1004 5.95 10.5504 5.4 10.0504C4.7 9.45037 4 8.75037 4 7.00037C4 4.80037 5.8 3.00037 8 3.00037C10.2 3.00037 12 4.80037 12 7.00037C12 8.75037 11.3 9.45037 10.6 10.0504C10.05 10.5504 9.5 11.0504 9.5 12.0004H10.5C10.5 11.5504 10.75 11.2504 11.25 10.8004C12 10.1504 13 9.20037 13 7.00037C13 4.25037 10.75 2.00037 8 2.00037Z" fill="#161616"/>
</g>
<defs>
<clipPath id="clip0_1458_555">
<rect width="16" height="16" fill="white" transform="translate(0 0.000366211)"/>
</clipPath>
</defs>
</svg>
