<svg width="30" height="31" viewBox="0 0 30 31" fill="none" xmlns="http://www.w3.org/2000/svg">
<g filter="url(#filter0_d_19_2403)">
<path d="M9 3V6H6V3H9ZM4.5 1.5V7.5H10.5V1.5H4.5Z" fill="#808080"/>
<path d="M16.5 5.25V8.25H13.5V5.25H16.5ZM12 3.75V9.75H18V3.75H12Z" fill="#808080"/>
<path d="M9 12V15H6V12H9ZM4.5 10.5V16.5H10.5V10.5H4.5Z" fill="#808080"/>
<path d="M19.5 7.5V12H15V16.5H10.5V22.5H25.5V7.5H19.5ZM16.5 13.5H19.5V16.5H16.5V13.5ZM15 21H12V18H15V21ZM19.5 21H16.5V18H19.5V21ZM24 21H21V18H24V21ZM24 16.5H21V13.5H24V16.5ZM21 12V9H24V12H21Z" fill="#808080"/>
</g>
<defs>
<filter id="filter0_d_19_2403" x="-1" y="0" width="32" height="32" filterUnits="userSpaceOnUse" color-interpolation-filters="sRGB">
<feFlood flood-opacity="0" result="BackgroundImageFix"/>
<feColorMatrix in="SourceAlpha" type="matrix" values="0 0 0 0 0 0 0 0 0 0 0 0 0 0 0 0 0 0 127 0" result="hardAlpha"/>
<feOffset dy="4"/>
<feGaussianBlur stdDeviation="2"/>
<feComposite in2="hardAlpha" operator="out"/>
<feColorMatrix type="matrix" values="0 0 0 0 0 0 0 0 0 0 0 0 0 0 0 0 0 0 0.25 0"/>
<feBlend mode="normal" in2="BackgroundImageFix" result="effect1_dropShadow_19_2403"/>
<feBlend mode="normal" in="SourceGraphic" in2="effect1_dropShadow_19_2403" result="shape"/>
</filter>
</defs>
</svg>
