<svg xmlns="http://www.w3.org/2000/svg" width="24" height="24" viewBox="0 0 24 24" fill="none">
    <path d="M18 22.4998C17.11 22.4998 16.24 22.2358 15.4999 21.7414C14.7599 21.2469 14.1831 20.5441 13.8425 19.7218C13.5019 18.8996 13.4128 17.9948 13.5865 17.1219C13.7601 16.2489 14.1887 15.4471 14.818 14.8178C15.4474 14.1885 16.2492 13.7599 17.1221 13.5862C17.995 13.4126 18.8998 13.5017 19.7221 13.8423C20.5443 14.1829 21.2471 14.7597 21.7416 15.4997C22.2361 16.2397 22.5 17.1098 22.5 17.9998C22.4987 19.1928 22.0241 20.3367 21.1805 21.1803C20.3369 22.0239 19.1931 22.4984 18 22.4998ZM18 14.9998C17.4067 14.9998 16.8266 15.1757 16.3333 15.5054C15.8399 15.835 15.4554 16.3035 15.2284 16.8517C15.0013 17.3999 14.9419 18.0031 15.0576 18.585C15.1734 19.167 15.4591 19.7015 15.8787 20.1211C16.2982 20.5406 16.8328 20.8264 17.4147 20.9421C17.9967 21.0579 18.5999 20.9985 19.1481 20.7714C19.6962 20.5443 20.1648 20.1598 20.4944 19.6665C20.8241 19.1731 21 18.5931 21 17.9998C20.9991 17.2044 20.6827 16.4419 20.1203 15.8794C19.5579 15.317 18.7954 15.0007 18 14.9998Z" fill="#808080"/>
    <path d="M12 16.4998H6V17.9998H12V16.4998Z" fill="#808080"/>
    <path d="M13.5 11.9998H6V13.4998H13.5V11.9998Z" fill="#808080"/>
    <path d="M12 20.9998H4.5V2.99977H10.5V7.49977C10.5011 7.89724 10.6596 8.27811 10.9406 8.55916C11.2217 8.84022 11.6025 8.99862 12 8.99977H16.5V11.2498H18V7.49977C18.0027 7.4012 17.984 7.30321 17.9451 7.21258C17.9063 7.12194 17.8482 7.04081 17.775 6.97477L12.525 1.72477C12.459 1.65152 12.3778 1.59346 12.2872 1.55462C12.1966 1.51577 12.0986 1.49706 12 1.49977H4.5C4.10253 1.50092 3.72166 1.65932 3.44061 1.94038C3.15955 2.22143 3.00115 2.6023 3 2.99977V20.9998C3.00115 21.3972 3.15955 21.7781 3.44061 22.0592C3.72166 22.3402 4.10253 22.4986 4.5 22.4998H12V20.9998ZM12 3.29977L16.2 7.49977H12V3.29977Z" fill="#808080"/>
</svg>