<svg width="16" height="16" viewBox="0 0 16 16" fill="none" xmlns="http://www.w3.org/2000/svg">
<path d="M12.85 4.65061L9.35 1.15061C9.25 1.05061 9.15 1.00061 9 1.00061H4C3.45 1.00061 3 1.45061 3 2.00061V14.0006C3 14.5506 3.45 15.0006 4 15.0006H12C12.55 15.0006 13 14.5506 13 14.0006V5.00061C13 4.85061 12.95 4.75061 12.85 4.65061ZM9 2.20061L11.8 5.00061H9V2.20061ZM12 14.0006H4V2.00061H8V5.00061C8 5.55061 8.45 6.00061 9 6.00061H12V14.0006Z" fill="#808080"/>
<path d="M11 11.0006H5V12.0006H11V11.0006Z" fill="#808080"/>
<path d="M11 8.00061H5V9.00061H11V8.00061Z" fill="#808080"/>
</svg>
