<svg width="16" height="16" viewBox="0 0 16 16" fill="none" xmlns="http://www.w3.org/2000/svg">
<path d="M8 11.5005C7.85167 11.5005 7.70666 11.5445 7.58333 11.6269C7.45999 11.7093 7.36386 11.8264 7.30709 11.9635C7.25033 12.1005 7.23548 12.2513 7.26441 12.3968C7.29335 12.5423 7.36478 12.6759 7.46967 12.7808C7.57456 12.8857 7.7082 12.9571 7.85369 12.9861C7.99917 13.015 8.14997 13.0002 8.28702 12.9434C8.42406 12.8866 8.54119 12.7905 8.62361 12.6672C8.70602 12.5438 8.75 12.3988 8.75 12.2505C8.75 12.0516 8.67099 11.8608 8.53033 11.7202C8.38968 11.5795 8.19892 11.5005 8 11.5005Z" fill="#EF4444"/>
<path d="M8.5 6.0005H7.5V10.5005H8.5V6.0005Z" fill="#EF4444"/>
<path d="M14.5 15.0005H1.5C1.4141 15.0005 1.32965 14.9784 1.25478 14.9362C1.17992 14.8941 1.11718 14.8334 1.0726 14.76C1.02802 14.6865 1.00311 14.6029 1.00027 14.517C0.997436 14.4311 1.01677 14.346 1.0564 14.2698L7.5564 1.7698C7.59862 1.68861 7.66231 1.62057 7.74053 1.57309C7.81875 1.5256 7.9085 1.50049 8 1.50049C8.09151 1.50049 8.18126 1.5256 8.25948 1.57309C8.3377 1.62057 8.40138 1.68861 8.4436 1.7698L14.9436 14.2698C14.9832 14.346 15.0026 14.4311 14.9997 14.517C14.9969 14.6029 14.972 14.6865 14.9274 14.76C14.8828 14.8334 14.8201 14.8941 14.7452 14.9362C14.6704 14.9784 14.5859 15.0005 14.5 15.0005ZM2.32535 14.0005H13.6747L13.6757 13.9988L8.001 3.0862H7.999L2.32435 13.9988L2.32535 14.0005Z" fill="#EF4444"/>
</svg>
