<svg width="16" height="16" viewBox="0 0 16 16" fill="none" xmlns="http://www.w3.org/2000/svg">
<path d="M15 12.0004V11.0004H13.9494C13.885 10.6874 13.7607 10.3898 13.5835 10.1239L14.3285 9.37892L13.6215 8.67192L12.8765 9.41692C12.6106 9.23967 12.313 9.1154 12 9.05092V8.00037H11V9.05092C10.687 9.11539 10.3894 9.23964 10.1236 9.41687L9.37855 8.67187L8.67155 9.37887L9.41655 10.1239C9.2393 10.3898 9.11503 10.6874 9.05055 11.0004H8V12.0004H9.05055C9.11502 12.3133 9.23928 12.6109 9.4165 12.8768L8.6715 13.6218L9.3785 14.3288L10.1235 13.5838C10.3894 13.7611 10.687 13.8853 11 13.9498V15.0004H12V13.9498C12.313 13.8853 12.6106 13.7611 12.8764 13.5839L13.6215 14.3289L14.3285 13.6219L13.5835 12.8769C13.7607 12.611 13.885 12.3134 13.9494 12.0004H15ZM11.5 13.0004C11.2033 13.0004 10.9133 12.9124 10.6666 12.7476C10.42 12.5827 10.2277 12.3485 10.1142 12.0744C10.0006 11.8003 9.97094 11.4987 10.0288 11.2077C10.0867 10.9168 10.2296 10.6495 10.4393 10.4397C10.6491 10.2299 10.9164 10.0871 11.2074 10.0292C11.4983 9.97131 11.7999 10.001 12.074 10.1145C12.3481 10.2281 12.5824 10.4203 12.7472 10.667C12.912 10.9137 13 11.2037 13 11.5004C12.9996 11.8981 12.8414 12.2793 12.5602 12.5605C12.279 12.8418 11.8977 12.9999 11.5 13.0004Z" fill="#161616"/>
<path d="M14 2.00037H2C1.73486 2.00063 1.48066 2.10607 1.29319 2.29355C1.10571 2.48103 1.00026 2.73523 1 3.00037V13.0004C1.0003 13.2655 1.10576 13.5197 1.29323 13.7071C1.4807 13.8946 1.73488 14.0001 2 14.0004H7V13.0004H2V6.00037H14V7.50037H15V3.00037C14.9997 2.73524 14.8942 2.48107 14.7068 2.2936C14.5193 2.10613 14.2651 2.00067 14 2.00037ZM14 5.00037H2V3.00037H14V5.00037Z" fill="#161616"/>
<path d="M10 4.50037C10.2761 4.50037 10.5 4.27651 10.5 4.00037C10.5 3.72422 10.2761 3.50037 10 3.50037C9.72386 3.50037 9.5 3.72422 9.5 4.00037C9.5 4.27651 9.72386 4.50037 10 4.50037Z" fill="#161616"/>
<path d="M11.5 4.50037C11.7761 4.50037 12 4.27651 12 4.00037C12 3.72422 11.7761 3.50037 11.5 3.50037C11.2239 3.50037 11 3.72422 11 4.00037C11 4.27651 11.2239 4.50037 11.5 4.50037Z" fill="#161616"/>
<path d="M13 4.50037C13.2761 4.50037 13.5 4.27651 13.5 4.00037C13.5 3.72422 13.2761 3.50037 13 3.50037C12.7239 3.50037 12.5 3.72422 12.5 4.00037C12.5 4.27651 12.7239 4.50037 13 4.50037Z" fill="#161616"/>
</svg>
