<svg width="48" height="48" viewBox="0 0 48 48" fill="none" xmlns="http://www.w3.org/2000/svg">
<mask id="path-1-inside-1_1187_1668" fill="white">
<path d="M0 24C0 10.7452 10.7452 0 24 0C37.2548 0 48 10.7452 48 24C48 37.2548 37.2548 48 24 48C10.7452 48 0 37.2548 0 24Z"/>
</mask>
<path d="M24 47C11.2975 47 1 36.7025 1 24H-1C-1 37.8071 10.1929 49 24 49V47ZM47 24C47 36.7025 36.7025 47 24 47V49C37.8071 49 49 37.8071 49 24H47ZM24 1C36.7025 1 47 11.2975 47 24H49C49 10.1929 37.8071 -1 24 -1V1ZM24 -1C10.1929 -1 -1 10.1929 -1 24H1C1 11.2975 11.2975 1 24 1V-1Z" fill="#E6E6E6" mask="url(#path-1-inside-1_1187_1668)"/>
<path d="M19.5 33H13.5V34.5H19.5V33Z" fill="#808080"/>
<path d="M19.5 30H13.5V31.5H19.5V30Z" fill="#808080"/>
<path d="M27 33H21V34.5H27V33Z" fill="#808080"/>
<path d="M27 30H21V31.5H27V30Z" fill="#808080"/>
<path d="M19.5 27H13.5V28.5H19.5V27Z" fill="#808080"/>
<path d="M27 27H21V28.5H27V27Z" fill="#808080"/>
<path d="M19.5 24H13.5V25.5H19.5V24Z" fill="#808080"/>
<path d="M27 24H21V25.5H27V24Z" fill="#808080"/>
<path d="M27 21H21V22.5H27V21Z" fill="#808080"/>
<path d="M27 18H21V19.5H27V18Z" fill="#808080"/>
<path d="M27 15H21V16.5H27V15Z" fill="#808080"/>
<path d="M34.5 33H28.5V34.5H34.5V33Z" fill="#808080"/>
<path d="M34.5 30H28.5V31.5H34.5V30Z" fill="#808080"/>
</svg>
