<svg width="16" height="16" viewBox="0 0 16 16" fill="none" xmlns="http://www.w3.org/2000/svg">
<path d="M7 10.7076L4.5 8.20711L5.2065 7.50061L7 9.29361L10.7925 5.50061L11.5 6.20811L7 10.7076Z" fill="#10B946"/>
<path d="M8 1.00061C6.61553 1.00061 5.26216 1.41115 4.11101 2.18032C2.95987 2.94949 2.06266 4.04274 1.53285 5.32183C1.00303 6.60091 0.86441 8.00838 1.13451 9.36624C1.4046 10.7241 2.07129 11.9714 3.05026 12.9504C4.02922 13.9293 5.2765 14.596 6.63437 14.8661C7.99224 15.1362 9.3997 14.9976 10.6788 14.4678C11.9579 13.938 13.0511 13.0407 13.8203 11.8896C14.5895 10.7385 15 9.38508 15 8.00061C15 6.14409 14.2625 4.36362 12.9497 3.05086C11.637 1.73811 9.85652 1.00061 8 1.00061ZM8 14.0006C6.81332 14.0006 5.65328 13.6487 4.66658 12.9894C3.67989 12.3301 2.91085 11.3931 2.45673 10.2967C2.0026 9.20035 1.88378 7.99395 2.11529 6.83007C2.3468 5.66618 2.91825 4.59708 3.75736 3.75797C4.59648 2.91885 5.66558 2.34741 6.82946 2.1159C7.99335 1.88439 9.19975 2.00321 10.2961 2.45733C11.3925 2.91146 12.3295 3.68049 12.9888 4.66719C13.6481 5.65388 14 6.81392 14 8.00061C14 9.59191 13.3679 11.118 12.2426 12.2433C11.1174 13.3685 9.5913 14.0006 8 14.0006Z" fill="#10B946"/>
</svg>
