<svg width="16" height="16" viewBox="0 0 16 16" fill="none" xmlns="http://www.w3.org/2000/svg">
<path d="M15.5 12.0004H13.5V10.0004H12.5V12.0004H10.5V13.0004H12.5V15.0004H13.5V13.0004H15.5V12.0004Z" fill="#161616"/>
<path d="M12.5 2.50037H11V2.00037C10.9992 1.73539 10.8936 1.48148 10.7063 1.2941C10.5189 1.10673 10.265 1.00113 10 1.00037H6C5.73502 1.00113 5.48111 1.10673 5.29374 1.2941C5.10637 1.48148 5.00077 1.73539 5 2.00037V2.50037H3.5C3.23502 2.50113 2.98111 2.60673 2.79374 2.7941C2.60637 2.98148 2.50077 3.23538 2.5 3.50037V14.0004C2.50077 14.2653 2.60637 14.5193 2.79374 14.7066C2.98111 14.894 3.23502 14.9996 3.5 15.0004H8.5V14.0004H3.5V3.50037H5V5.00037H11V3.50037H12.5V8.00037H13.5V3.50037C13.4992 3.23538 13.3936 2.98148 13.2063 2.7941C13.0189 2.60673 12.765 2.50113 12.5 2.50037ZM10 4.00037H6V2.00037H10V4.00037Z" fill="#161616"/>
</svg>
