<svg width="32" height="32" viewBox="0 0 32 32" fill="none" xmlns="http://www.w3.org/2000/svg">
<path d="M19 21.0006C19.5523 21.0006 20 20.5529 20 20.0006C20 19.4483 19.5523 19.0006 19 19.0006C18.4477 19.0006 18 19.4483 18 20.0006C18 20.5529 18.4477 21.0006 19 21.0006Z" fill="#4D4D4D"/>
<path d="M22.8884 19.7399C22.5795 18.9529 22.0464 18.2738 21.3552 17.7869C20.664 17.3 19.8451 17.0266 19 17.0006C18.1549 17.0266 17.336 17.3 16.6448 17.7869C15.9536 18.2738 15.4205 18.9529 15.1115 19.7399L15 20.0006L15.1115 20.2614C15.4205 21.0484 15.9536 21.7274 16.6448 22.2143C17.336 22.7012 18.1549 22.9746 19 23.0006C19.8451 22.9746 20.664 22.7012 21.3552 22.2143C22.0464 21.7274 22.5795 21.0484 22.8884 20.2614L23 20.0006L22.8884 19.7399ZM19 22.0006C18.6044 22.0006 18.2178 21.8833 17.8889 21.6635C17.56 21.4438 17.3036 21.1314 17.1522 20.766C17.0009 20.4005 16.9613 19.9984 17.0384 19.6104C17.1156 19.2225 17.3061 18.8661 17.5858 18.5864C17.8655 18.3067 18.2219 18.1162 18.6098 18.039C18.9978 17.9619 19.3999 18.0015 19.7654 18.1529C20.1308 18.3042 20.4432 18.5606 20.6629 18.8895C20.8827 19.2184 21 19.605 21 20.0006C20.9994 20.5309 20.7885 21.0392 20.4136 21.4142C20.0386 21.7891 19.5303 22 19 22.0006Z" fill="#4D4D4D"/>
<path d="M14 16.5006H11.5V17.5006H14V16.5006Z" fill="#4D4D4D"/>
<path d="M17.5 14.0006H11.5V15.0006H17.5V14.0006Z" fill="#4D4D4D"/>
<path d="M17.5 11.5006H11.5V12.5006H17.5V11.5006Z" fill="#4D4D4D"/>
<path d="M19 9.00061H10C9.73502 9.00138 9.48111 9.10698 9.29374 9.29435C9.10637 9.48172 9.00077 9.73563 9 10.0006V22.0006C9.00077 22.2656 9.10637 22.5195 9.29374 22.7069C9.48111 22.8942 9.73502 22.9998 10 23.0006H14V22.0006H10V10.0006H19V15.5006H20V10.0006C19.9992 9.73563 19.8936 9.48172 19.7063 9.29435C19.5189 9.10698 19.265 9.00138 19 9.00061Z" fill="#4D4D4D"/>
</svg>
