<svg width="16" height="16" viewBox="0 0 16 16" fill="none" xmlns="http://www.w3.org/2000/svg">
<path d="M7 10.7075L4.5 8.20699L5.2065 7.50049L7 9.29349L10.7925 5.50049L11.5 6.20799L7 10.7075Z" fill="#977702"/>
<path d="M8 1.00049C6.61553 1.00049 5.26216 1.41103 4.11101 2.1802C2.95987 2.94937 2.06266 4.04262 1.53285 5.3217C1.00303 6.60079 0.86441 8.00825 1.13451 9.36612C1.4046 10.724 2.07129 11.9713 3.05026 12.9502C4.02922 13.9292 5.2765 14.5959 6.63437 14.866C7.99224 15.1361 9.3997 14.9975 10.6788 14.4676C11.9579 13.9378 13.0511 13.0406 13.8203 11.8895C14.5895 10.7383 15 9.38496 15 8.00049C15 6.14397 14.2625 4.3635 12.9497 3.05074C11.637 1.73799 9.85652 1.00049 8 1.00049ZM8 14.0005C6.81332 14.0005 5.65328 13.6486 4.66658 12.9893C3.67989 12.33 2.91085 11.3929 2.45673 10.2966C2.0026 9.20023 1.88378 7.99383 2.11529 6.82995C2.3468 5.66606 2.91825 4.59696 3.75736 3.75785C4.59648 2.91873 5.66558 2.34729 6.82946 2.11578C7.99335 1.88427 9.19975 2.00309 10.2961 2.45721C11.3925 2.91134 12.3295 3.68037 12.9888 4.66707C13.6481 5.65376 14 6.8138 14 8.00049C14 9.59179 13.3679 11.1179 12.2426 12.2431C11.1174 13.3683 9.5913 14.0005 8 14.0005Z" fill="#977702"/>
</svg>
